<?xml version="1.0" encoding="UTF-8"?>
<svg version="1.1" xmlns="http://www.w3.org/2000/svg" width="24" height="24">
<path d="M0 0 C0 0.99 0 1.98 0 3 C2.64 3.33 5.28 3.66 8 4 C8 4.99 8 5.98 8 7 C10.31 7 12.62 7 15 7 C15 8.32 15 9.64 15 11 C17.64 11 20.28 11 23 11 C23 11.99 23 12.98 23 14 C25.31 14.33 27.62 14.66 30 15 C30 15.99 30 16.98 30 18 C32.31 18 34.62 18 37 18 C37 19.32 37 20.64 37 22 C39.64 22 42.28 22 45 22 C45 22.99 45 23.98 45 25 C47.31 25 49.62 25 52 25 C52 26.32 52 27.64 52 29 C55.96 29.495 55.96 29.495 60 30 C60 30.99 60 31.98 60 33 C62.31 33 64.62 33 67 33 C67 34.32 67 35.64 67 37 C69.31 37 71.62 37 74 37 C74 37.99 74 38.98 74 40 C75.32 40 76.64 40 78 40 C78 41.32 78 42.64 78 44 C81.63 44 85.26 44 89 44 C89 45.32 89 46.64 89 48 C91.64 48 94.28 48 97 48 C97 48.99 97 49.98 97 51 C98.32 51.33 99.64 51.66 101 52 C101 52.99 101 53.98 101 55 C103.31 55 105.62 55 108 55 C108 56.32 108 57.64 108 59 C110.31 59 112.62 59 115 59 C115 60.32 115 61.64 115 63 C115.99 63 116.98 63 118 63 C118 63.99 118 64.98 118 66 C117.01 66 116.02 66 115 66 C115 403.92 115 741.84 115 1090 C116.32 1090 117.64 1090 119 1090 C119 1091.32 119 1092.64 119 1094 C117.68 1094 116.36 1094 115 1094 C115 1097.63 115 1101.26 115 1105 C117.64 1105 120.28 1105 123 1105 C123 1105.99 123 1106.98 123 1108 C124.98 1108 126.96 1108 129 1108 C129 850.27 129 592.54 129 327 C130.32 326.67 131.64 326.34 133 326 C133 324.68 133 323.36 133 322 C135.64 322.33 138.28 322.66 141 323 C141 324.98 141 326.96 141 329 C142.98567708 328.96744792 144.97135417 328.93489583 146.95703125 328.90234375 C149 329 149 329 152 330 C152.33 330.99 152.66 331.98 153 333 C153.99 333.33 154.98 333.66 156 334 C156 334.99 156 335.98 156 337 C157.32 337 158.64 337 160 337 C160 338.32 160 339.64 160 341 C161.32 341 162.64 341 164 341 C164 341.99 164 342.98 164 344 C164.99 344 165.98 344 167 344 C167 345.32 167 346.64 167 348 C169.31 348 171.62 348 174 348 C174.33 349.32 174.66 350.64 175 352 C175.99 352 176.98 352 178 352 C178 352.99 178 353.98 178 355 C179.32 355 180.64 355 182 355 C182 356.32 182 357.64 182 359 C183.32 359 184.64 359 186 359 C186 360.32 186 361.64 186 363 C188.31 363 190.62 363 193 363 C193 364.32 193 365.64 193 367 C194.32 367 195.64 367 197 367 C197 367.99 197 368.98 197 370 C198.32 370 199.64 370 201 370 C201 371.32 201 372.64 201 374 C201.99 374 202.98 374 204 374 C204 375.32 204 376.64 204 378 C206.31 378 208.62 378 211 378 C211.33 378.99 211.66 379.98 212 381 C212.99 381.33 213.98 381.66 215 382 C215 382.99 215 383.98 215 385 C216.32 385 217.64 385 219 385 C219 386.32 219 387.64 219 389 C220.32 389 221.64 389 223 389 C223 390.32 223 391.64 223 393 C225.31 393 227.62 393 230 393 C230 394.32 230 395.64 230 397 C230.99 397 231.98 397 233 397 C233.33 399.31 233.66 401.62 234 404 C236.31 404 238.62 404 241 404 C241 404.99 241 405.98 241 407 C243.31 407.33 245.62 407.66 248 408 C248.33 408.99 248.66 409.98 249 411 C249.99 411.33 250.98 411.66 252 412 C252.33 413.98 252.66 415.96 253 418 C253.99 418 254.98 418 256 418 C256 423.28 256 428.56 256 434 C256.99 434 257.98 434 259 434 C259 458.09 259 482.18 259 507 C258.01 507 257.02 507 256 507 C256 551.22 256 595.44 256 641 C256.99 641 257.98 641 259 641 C259 649.58 259 658.16 259 667 C258.01 667 257.02 667 256 667 C256 801.64 256 936.28 256 1075 C256.99 1075 257.98 1075 259 1075 C259 1079.95 259 1084.9 259 1090 C258.01 1090 257.02 1090 256 1090 C256 1090.99 256 1091.98 256 1093 C257.32 1093 258.64 1093 260 1093 C260 1099.27 260 1105.54 260 1112 C264.62 1112 269.24 1112 274 1112 C274.33 1110.68 274.66 1109.36 275 1108 C276.98 1108 278.96 1108 281 1108 C281 1102.06 281 1096.12 281 1090 C282.32 1090 283.64 1090 285 1090 C285 934.57 285 779.14 285 619 C284.01 619 283.02 619 282 619 C282 616.36 282 613.72 282 611 C282.99 611 283.98 611 285 611 C285 610.01 285 609.02 285 608 C287.64 608 290.28 608 293 608 C293 608.99 293 609.98 293 611 C295.31 611 297.62 611 300 611 C300.33 612.32 300.66 613.64 301 615 C303.31 615 305.62 615 308 615 C308 616.32 308 617.64 308 619 C309.32 619 310.64 619 312 619 C312 619.99 312 620.98 312 622 C314.31 622 316.62 622 319 622 C319 623.32 319 624.64 319 626 C320.32 626 321.64 626 323 626 C323 627.32 323 628.64 323 630 C325.31 630 327.62 630 330 630 C330 631.32 330 632.64 330 634 C332.31 634 334.62 634 337 634 C337 634.99 337 635.98 337 637 C339.64 637.33 342.28 637.66 345 638 C345 638.99 345 639.98 345 641 C346.32 641 347.64 641 349 641 C349 642.32 349 643.64 349 645 C350.32 645 351.64 645 353 645 C353 645.99 353 646.98 353 648 C355.31 648 357.62 648 360 648 C360 649.32 360 650.64 360 652 C362.31 652 364.62 652 367 652 C367 653.32 367 654.64 367 656 C369.64 656 372.28 656 375 656 C375 656.99 375 657.98 375 659 C376.32 659.33 377.64 659.66 379 660 C379 660.99 379 661.98 379 663 C380.98 663.33 382.96 663.66 385 664 C385 664.99 385 665.98 385 667 C386.65 667 388.3 667 390 667 C390 668.32 390 669.64 390 671 C391.32 671 392.64 671 394 671 C394 671.99 394 672.98 394 674 C395.093125 673.979375 396.18625 673.95875 397.3125 673.9375 C401 674 401 674 404 675 C404 675.99 404 676.98 404 678 C405.32 678 406.64 678 408 678 C408 679.32 408 680.64 408 682 C409.32 682 410.64 682 412 682 C412 805.42 412 928.84 412 1056 C414.31 1056 416.62 1056 419 1056 C419 1055.01 419 1054.02 419 1053 C419.99 1053 420.98 1053 422 1053 C422 1051.68 422 1050.36 422 1049 C423.32 1049 424.64 1049 426 1049 C426 1047.68 426 1046.36 426 1045 C428.31 1045 430.62 1045 433 1045 C433.33 1043.68 433.66 1042.36 434 1041 C434.99 1041 435.98 1041 437 1041 C437 1040.01 437 1039.02 437 1038 C439.64 1038 442.28 1038 445 1038 C445 1035.69 445 1033.38 445 1031 C447.31 1030.67 449.62 1030.34 452 1030 C452 1029.01 452 1028.02 452 1027 C453.32 1027 454.64 1027 456 1027 C456 1025.68 456 1024.36 456 1023 C457.32 1023 458.64 1023 460 1023 C460 1022.01 460 1021.02 460 1020 C462.31 1019.67 464.62 1019.34 467 1019 C467 1017.68 467 1016.36 467 1015 C468.32 1015 469.64 1015 471 1015 C471 1014.01 471 1013.02 471 1012 C471.99 1012 472.98 1012 474 1012 C474 1010.68 474 1009.36 474 1008 C475.32 1008 476.64 1008 478 1008 C478 1007.01 478 1006.02 478 1005 C479.32 1005 480.64 1005 482 1005 C482 1003.68 482 1002.36 482 1001 C483.32 1001 484.64 1001 486 1001 C486 999.68 486 998.36 486 997 C486.99 997 487.98 997 489 997 C489 996.01 489 995.02 489 994 C490.32 994 491.64 994 493 994 C493 992.68 493 991.36 493 990 C493.99 990 494.98 990 496 990 C496.33 988.68 496.66 987.36 497 986 C497.99 986 498.98 986 500 986 C500 984.68 500 983.36 500 982 C501.32 982 502.64 982 504 982 C504 980.68 504 979.36 504 978 C505.32 978 506.64 978 508 978 C508 977.01 508 976.02 508 975 C508.99 975 509.98 975 511 975 C511.33 972.69 511.66 970.38 512 968 C512.99 968 513.98 968 515 968 C515 966.68 515 965.36 515 964 C516.32 964 517.64 964 519 964 C519 962.68 519 961.36 519 960 C519.99 960 520.98 960 522 960 C522 958.68 522 957.36 522 956 C523.32 956 524.64 956 526 956 C526 953.69 526 951.38 526 949 C527.32 949 528.64 949 530 949 C530 947.68 530 946.36 530 945 C531.32 945 532.64 945 534 945 C534 943.68 534 942.36 534 941 C534.99 941 535.98 941 537 941 C536.9690625 939.3603125 536.9690625 939.3603125 536.9375 937.6875 C537 934 537 934 538 931 C538.99 931 539.98 931 541 931 C541.33 929.35 541.66 927.7 542 926 C542.99 926 543.98 926 545 926 C545 925.01 545 924.02 545 923 C545.99 923 546.98 923 548 923 C548 921.68 548 920.36 548 919 C549.32 919 550.64 919 552 919 C552 915.37 552 911.74 552 908 C553.32 908 554.64 908 556 908 C556 905.69 556 903.38 556 901 C557.32 901 558.64 901 560 901 C560 897.37 560 893.74 560 890 C560.99 890 561.98 890 563 890 C563 888.68 563 887.36 563 886 C564.32 886 565.64 886 567 886 C567 883.69 567 881.38 567 879 C568.32 878.67 569.64 878.34 571 878 C571 875.69 571 873.38 571 871 C571.99 871 572.98 871 574 871 C573.9690625 869.1128125 573.9690625 869.1128125 573.9375 867.1875 C573.89113917 864.35948913 574.08307039 862.75078884 575 860 C575.99 860 576.98 860 578 860 C577.9690625 858.1128125 577.9690625 858.1128125 577.9375 856.1875 C577.89113917 853.35948913 578.08307039 851.75078884 579 849 C579.99 849 580.98 849 582 849 C582 846.36 582 843.72 582 841 C582.99 841 583.98 841 585 841 C584.9690625 839.39125 584.9690625 839.39125 584.9375 837.75 C584.9857984 834.85209576 585.13155885 832.71387859 586 830 C586.99 830 587.98 830 589 830 C589 825.38 589 820.76 589 816 C590.32 816 591.64 816 593 816 C592.98839844 814.87980469 592.97679687 813.75960937 592.96484375 812.60546875 C592.95546378 811.13281417 592.9463638 809.66015778 592.9375 808.1875 C592.92912109 807.44951172 592.92074219 806.71152344 592.91210938 805.95117188 C592.89740172 802.70077932 592.96468298 800.10595105 594 797 C594.99 797 595.98 797 597 797 C597 787.1 597 777.2 597 767 C597.99 767 598.98 767 600 767 C599.99476318 766.44014404 599.98952637 765.88028809 599.98413086 765.3034668 C599.96333309 762.76482263 599.95033096 760.22619641 599.9375 757.6875 C599.92912109 756.80642578 599.92074219 755.92535156 599.91210938 755.01757812 C599.90888672 754.17001953 599.90566406 753.32246094 599.90234375 752.44921875 C599.89710693 751.66893311 599.89187012 750.88864746 599.88647461 750.0847168 C600 748 600 748 601 745 C601.99 745 602.98 745 604 745 C604 742.36 604 739.72 604 737 C603.01 737 602.02 737 601 737 C601 736.01 601 735.02 601 734 C601.99 734 602.98 734 604 734 C604 724.43 604 714.86 604 705 C603.01 705 602.02 705 601 705 C600.15856544 694.49582315 599.87137949 684.09562264 599.9375 673.5625 C599.94253579 672.1373714 599.94709494 670.71224104 599.95117188 669.28710938 C599.96198818 665.85803507 599.97913239 662.42902968 600 659 C599.01 659 598.02 659 597 659 C597 651.74 597 644.48 597 637 C596.01 637 595.02 637 594 637 C592.7937748 633.38132441 592.89183082 630.07493749 592.9375 626.3125 C592.94201172 625.61060547 592.94652344 624.90871094 592.95117188 624.18554688 C592.96293073 622.45699462 592.98086546 620.72848635 593 619 C592.01 619 591.02 619 590 619 C588.90493508 615.71480525 588.90039392 613.26336585 588.9375 609.8125 C588.94652344 608.72582031 588.95554687 607.63914062 588.96484375 606.51953125 C588.98224609 605.27236328 588.98224609 605.27236328 589 604 C588.01 604 587.02 604 586 604 C585.67 601.36 585.34 598.72 585 596 C584.01 596 583.02 596 582 596 C582 591.38 582 586.76 582 582 C580.68 582 579.36 582 578 582 C578 579.69 578 577.38 578 575 C577.01 575 576.02 575 575 575 C573.82428549 571.32589215 573.92633254 567.83070817 574 564 C573.01 564 572.02 564 571 564 C571 561.69 571 559.38 571 557 C569.68 556.67 568.36 556.34 567 556 C567 552.37 567 548.74 567 545 C565.68 545 564.36 545 563 545 C563 544.01 563 543.02 563 542 C562.01 542 561.02 542 560 542 C560 539.36 560 536.72 560 534 C558.68 534 557.36 534 556 534 C556 530.37 556 526.74 556 523 C554.68 523 553.36 523 552 523 C552 521.68 552 520.36 552 519 C550.68 519 549.36 519 548 519 C548 517.68 548 516.36 548 515 C547.01 515 546.02 515 545 515 C545 512.69 545 510.38 545 508 C543.68 508 542.36 508 541 508 C541 506.68 541 505.36 541 504 C540.01 504 539.02 504 538 504 C537.67 501.36 537.34 498.72 537 496 C536.01 496 535.02 496 534 496 C534 494.02 534 492.04 534 490 C532.68 490 531.36 490 530 490 C530 488.35 530 486.7 530 485 C529.01 485 528.02 485 527 485 C527 484.01 527 483.02 527 482 C525.68 482 524.36 482 523 482 C522.67 481.01 522.34 480.02 522 479 C521.01 478.67 520.02 478.34 519 478 C519 475.69 519 473.38 519 471 C517.68 470.67 516.36 470.34 515 470 C515 469.34 515 468.68 515 468 C513.68 467.67 512.36 467.34 511 467 C511 466.01 511 465.02 511 464 C510.01 464 509.02 464 508 464 C508 462.68 508 461.36 508 460 C506.68 460 505.36 460 504 460 C504 458.68 504 457.36 504 456 C502.68 456 501.36 456 500 456 C500 453.69 500 451.38 500 449 C499.01 449 498.02 449 497 449 C497 447.68 497 446.36 497 445 C495.68 445 494.36 445 493 445 C493 444.01 493 443.02 493 442 C491.68 442 490.36 442 489 442 C489 440.68 489 439.36 489 438 C487.68 438 486.36 438 485 438 C485 436.68 485 435.36 485 434 C484.01 434 483.02 434 482 434 C482 432.68 482 431.36 482 430 C480.68 430 479.36 430 478 430 C478 429.01 478 428.02 478 427 C476.68 427 475.36 427 474 427 C474 425.68 474 424.36 474 423 C473.01 423 472.02 423 471 423 C471 421.68 471 420.36 471 419 C469.68 419 468.36 419 467 419 C467 418.01 467 417.02 467 416 C464.69 415.67 462.38 415.34 460 415 C459.67 412.69 459.34 410.38 459 408 C456.69 408 454.38 408 452 408 C452 407.01 452 406.02 452 405 C449.69 404.67 447.38 404.34 445 404 C445 402.68 445 401.36 445 400 C443.68 400 442.36 400 441 400 C441 396.37 441 392.74 441 389 C442.32 389 443.64 389 445 389 C445 386.69 445 384.38 445 382 C445.99 382 446.98 382 448 382 C448 380.68 448 379.36 448 378 C451.96 378 455.92 378 460 378 C460 378.99 460 379.98 460 381 C462.31 381.33 464.62 381.66 467 382 C467 382.99 467 383.98 467 385 C468.32 385 469.64 385 471 385 C471 386.32 471 387.64 471 389 C473.31 389 475.62 389 478 389 C478 390.32 478 391.64 478 393 C479.32 393 480.64 393 482 393 C482.33 393.99 482.66 394.98 483 396 C483.99 396.33 484.98 396.66 486 397 C486 399.31 486 401.62 486 404 C488.31 404 490.62 404 493 404 C493 404.99 493 405.98 493 407 C494.32 407 495.64 407 497 407 C497 408.32 497 409.64 497 411 C498.32 411 499.64 411 501 411 C501 412.32 501 413.64 501 415 C502.32 415 503.64 415 505 415 C505 416.32 505 417.64 505 419 C505.99 419 506.98 419 508 419 C508 419.99 508 420.98 508 422 C509.32 422 510.64 422 512 422 C512 423.32 512 424.64 512 426 C513.32 426 514.64 426 516 426 C516 427.32 516 428.64 516 430 C517.32 430 518.64 430 520 430 C520 431.32 520 432.64 520 434 C520.99 434 521.98 434 523 434 C523 434.99 523 435.98 523 437 C524.32 437 525.64 437 527 437 C527 439.31 527 441.62 527 444 C529.31 444.33 531.62 444.66 534 445 C534 447.31 534 449.62 534 452 C535.32 452 536.64 452 538 452 C538 453.32 538 454.64 538 456 C538.99 456 539.98 456 541 456 C541.33 458.31 541.66 460.62 542 463 C543.32 463 544.64 463 546 463 C546 464.32 546 465.64 546 467 C546.99 467 547.98 467 549 467 C549 468.32 549 469.64 549 471 C550.32 471 551.64 471 553 471 C553 473.31 553 475.62 553 478 C554.32 478 555.64 478 557 478 C557 479.32 557 480.64 557 482 C557.99 482 558.98 482 560 482 C560 484.31 560 486.62 560 489 C561.32 489 562.64 489 564 489 C564 490.32 564 491.64 564 493 C565.32 493 566.64 493 568 493 C568 495.31 568 497.62 568 500 C569.32 500.33 570.64 500.66 572 501 C572 501.99 572 502.98 572 504 C572.99 504 573.98 504 575 504 C575 506.64 575 509.28 575 512 C575.99 512 576.98 512 578 512 C579.1577506 515.47325181 579.06866652 518.36067448 579 522 C580.32 522 581.64 522 583 522 C583 523.65 583 525.3 583 527 C583.99 527 584.98 527 586 527 C586 530.3 586 533.6 586 537 C587.32 537 588.64 537 590 537 C590 538.32 590 539.64 590 541 C590.99 541 591.98 541 593 541 C593.33 543.64 593.66 546.28 594 549 C594.99 549 595.98 549 597 549 C597 553.62 597 558.24 597 563 C598.32 563 599.64 563 601 563 C601 565.31 601 567.62 601 570 C602.32 570.33 603.64 570.66 605 571 C605 573.31 605 575.62 605 578 C605.99 578 606.98 578 608 578 C609.00109515 581.31070838 609.10356134 584.30084769 609.0625 587.75 C609.05347656 588.73484375 609.04445313 589.7196875 609.03515625 590.734375 C609.01775391 591.85585937 609.01775391 591.85585937 609 593 C609.99 593 610.98 593 612 593 C612 596.63 612 600.26 612 604 C613.32 604 614.64 604 616 604 C616 611.26 616 618.52 616 626 C617.32 626 618.64 626 620 626 C620 630.95 620 635.9 620 641 C620.99 641 621.98 641 623 641 C623 645.95 623 650.9 623 656 C623.99 656 624.98 656 626 656 C626.96689486 658.90068457 627.12564416 660.7289452 627.12698364 663.74438477 C627.12980347 664.72021515 627.13262329 665.69604553 627.13552856 666.70144653 C627.13350433 667.77063324 627.1314801 668.83981995 627.12939453 669.94140625 C627.13114685 671.06843964 627.13289917 672.19547302 627.13470459 673.35665894 C627.13911537 677.09195483 627.1361878 680.8272036 627.1328125 684.5625 C627.13348576 687.15177418 627.13445597 689.7410483 627.13571167 692.33032227 C627.13718759 697.76091165 627.13513248 703.19148323 627.13037109 708.62207031 C627.12492887 714.9017359 627.12669167 721.18136902 627.1321975 727.46103382 C627.13728082 733.50038413 627.13674462 739.53971855 627.13381577 745.57907104 C627.13314728 748.1499736 627.13397219 750.72087697 627.13629532 753.29177856 C627.13882644 756.88073949 627.13497467 760.46963752 627.12939453 764.05859375 C627.13141876 765.12778046 627.13344299 766.19696716 627.13552856 767.29855347 C627.13270874 768.27438385 627.12988892 769.25021423 627.12698364 770.25561523 C627.12660662 771.10437729 627.12622959 771.95313934 627.12584114 772.82762146 C627 775 627 775 626 778 C625.01 778 624.02 778 623 778 C623 783.28 623 788.56 623 794 C622.01 794 621.02 794 620 794 C620 799.94 620 805.88 620 812 C618.68 812 617.36 812 616 812 C616 819.26 616 826.52 616 834 C614.68 834 613.36 834 612 834 C612 837.96 612 841.92 612 846 C611.01 846 610.02 846 609 846 C609 849.3 609 852.6 609 856 C607.68 856.33 606.36 856.66 605 857 C605 859.31 605 861.62 605 864 C603.68 864 602.36 864 601 864 C601 867.63 601 871.26 601 875 C599.68 875 598.36 875 597 875 C597 878.63 597 882.26 597 886 C596.01 886 595.02 886 594 886 C594 888.64 594 891.28 594 894 C592.68 894 591.36 894 590 894 C590 896.31 590 898.62 590 901 C588.68 901 587.36 901 586 901 C586 903.64 586 906.28 586 909 C585.01 909 584.02 909 583 909 C583 911.31 583 913.62 583 916 C581.68 916 580.36 916 579 916 C579 918.31 579 920.62 579 923 C577.68 923.33 576.36 923.66 575 924 C575 926.31 575 928.62 575 931 C574.01 931 573.02 931 572 931 C571.67 933.31 571.34 935.62 571 938 C570.01 938 569.02 938 568 938 C568 939.32 568 940.64 568 942 C566.68 942 565.36 942 564 942 C564 943.32 564 944.64 564 946 C562.68 946 561.36 946 560 946 C560 948.31 560 950.62 560 953 C559.01 953 558.02 953 557 953 C557 955.31 557 957.62 557 960 C555.68 960.33 554.36 960.66 553 961 C553 961.99 553 962.98 553 964 C551.68 964 550.36 964 549 964 C549 965.32 549 966.64 549 968 C548.01 968 547.02 968 546 968 C546 970.31 546 972.62 546 975 C544.68 975.33 543.36 975.66 542 976 C542 976.99 542 977.98 542 979 C540.68 979 539.36 979 538 979 C538 980.32 538 981.64 538 983 C536.68 983 535.36 983 534 983 C534 984.32 534 985.64 534 987 C533.01 987 532.02 987 531 987 C531 989.31 531 991.62 531 994 C529.68 994 528.36 994 527 994 C527 995.32 527 996.64 527 998 C525.68 998 524.36 998 523 998 C523 999.32 523 1000.64 523 1002 C522.01 1002 521.02 1002 520 1002 C519.67 1002.99 519.34 1003.98 519 1005 C518.01 1005 517.02 1005 516 1005 C516 1006.32 516 1007.64 516 1009 C514.68 1009 513.36 1009 512 1009 C512 1010.32 512 1011.64 512 1013 C510.68 1013 509.36 1013 508 1013 C508 1013.99 508 1014.98 508 1016 C507.01 1016 506.02 1016 505 1016 C505 1017.32 505 1018.64 505 1020 C503.68 1020 502.36 1020 501 1020 C501 1021.32 501 1022.64 501 1024 C499.68 1024 498.36 1024 497 1024 C497 1025.98 497 1027.96 497 1030 C494.69 1030.33 492.38 1030.66 490 1031 C490 1032.32 490 1033.64 490 1035 C488.68 1035 487.36 1035 486 1035 C486 1036.32 486 1037.64 486 1039 C484.68 1039 483.36 1039 482 1039 C482 1039.99 482 1040.98 482 1042 C481.01 1042 480.02 1042 479 1042 C479 1043.32 479 1044.64 479 1046 C477.68 1046 476.36 1046 475 1046 C474.67 1047.32 474.34 1048.64 474 1050 C473.01 1050 472.02 1050 471 1050 C471 1050.99 471 1051.98 471 1053 C468.69 1053 466.38 1053 464 1053 C464 1054.32 464 1055.64 464 1057 C462.68 1057 461.36 1057 460 1057 C460 1057.99 460 1058.98 460 1060 C457.69 1060.33 455.38 1060.66 453 1061 C453 1062.32 453 1063.64 453 1065 C450.36 1065 447.72 1065 445 1065 C445 1065.99 445 1066.98 445 1068 C444.01 1068 443.02 1068 442 1068 C442 1069.32 442 1070.64 442 1072 C440.68 1072 439.36 1072 438 1072 C438 1073.32 438 1074.64 438 1076 C435.36 1076 432.72 1076 430 1076 C430 1076.66 430 1077.32 430 1078 C427.69 1078.33 425.38 1078.66 423 1079 C423 1080.32 423 1081.64 423 1083 C421.68 1083 420.36 1083 419 1083 C419 1083.99 419 1084.98 419 1086 C416.69 1086.33 414.38 1086.66 412 1087 C412 1087.99 412 1088.98 412 1090 C409.69 1090 407.38 1090 405 1090 C405 1091.32 405 1092.64 405 1094 C402.36 1094 399.72 1094 397 1094 C397 1095.32 397 1096.64 397 1098 C394.69 1098 392.38 1098 390 1098 C390 1099.32 390 1100.64 390 1102 C387.36 1102 384.72 1102 382 1102 C382 1102.99 382 1103.98 382 1105 C380.68 1105 379.36 1105 378 1105 C378 1105.99 378 1106.98 378 1108 C374.52674819 1109.1577506 371.63932552 1109.06866652 368 1109 C367.67 1110.32 367.34 1111.64 367 1113 C363.37 1113 359.74 1113 356 1113 C356 1113.99 356 1114.98 356 1116 C352.37 1116 348.74 1116 345 1116 C345 1116.99 345 1117.98 345 1119 C342.36 1119.33 339.72 1119.66 337 1120 C337 1120.99 337 1121.98 337 1123 C334.24921116 1123.91692961 332.64051087 1124.10886083 329.8125 1124.0625 C328.554375 1124.041875 327.29625 1124.02125 326 1124 C326 1124.99 326 1125.98 326 1127 C322.71480525 1128.09506492 320.26336585 1128.09960608 316.8125 1128.0625 C315.72582031 1128.05347656 314.63914062 1128.04445313 313.51953125 1128.03515625 C312.68808594 1128.02355469 311.85664062 1128.01195312 311 1128 C311 1128.66 311 1129.32 311 1130 C307.38132441 1131.2062252 304.07493749 1131.10816918 300.3125 1131.0625 C299.61060547 1131.05798828 298.90871094 1131.05347656 298.18554688 1131.04882812 C296.45699462 1131.03706927 294.72848635 1131.01913454 293 1131 C293 1132.32 293 1133.64 293 1135 C284.42 1135 275.84 1135 267 1135 C267 1136.32 267 1137.64 267 1139 C259.41 1139 251.82 1139 244 1139 C244 1139.99 244 1140.98 244 1142 C235.75 1142 227.5 1142 219 1142 C219 1141.01 219 1140.02 219 1139 C211.74 1139 204.48 1139 197 1139 C197 1139.99 197 1140.98 197 1142 C192.05 1142 187.1 1142 182 1142 C182 1141.01 182 1140.02 182 1139 C178.37 1139 174.74 1139 171 1139 C171 1139.99 171 1140.98 171 1142 C168.36 1142 165.72 1142 163 1142 C163 1141.01 163 1140.02 163 1139 C162.44014404 1139.00523682 161.88028809 1139.01047363 161.3034668 1139.01586914 C158.76482263 1139.03666691 156.22619641 1139.04966904 153.6875 1139.0625 C152.80642578 1139.07087891 151.92535156 1139.07925781 151.01757812 1139.08789062 C150.17001953 1139.09111328 149.32246094 1139.09433594 148.44921875 1139.09765625 C147.66893311 1139.10289307 146.88864746 1139.10812988 146.0847168 1139.11352539 C144 1139 144 1139 141 1138 C141 1137.01 141 1136.02 141 1135 C140.31897217 1135.00523682 139.63794434 1135.01047363 138.9362793 1135.01586914 C135.85336223 1135.03664458 132.7704599 1135.04966198 129.6875 1135.0625 C128.61564453 1135.07087891 127.54378906 1135.07925781 126.43945312 1135.08789062 C125.41142578 1135.09111328 124.38339844 1135.09433594 123.32421875 1135.09765625 C122.37635498 1135.10289307 121.42849121 1135.10812988 120.4519043 1135.11352539 C118 1135 118 1135 115 1134 C115 1133.01 115 1132.02 115 1131 C110.05 1131 105.1 1131 100 1131 C100 1130.01 100 1129.02 100 1128 C99.24074219 1128.01160156 98.48148438 1128.02320313 97.69921875 1128.03515625 C96.20841797 1128.04869141 96.20841797 1128.04869141 94.6875 1128.0625 C93.70136719 1128.07410156 92.71523438 1128.08570313 91.69921875 1128.09765625 C89 1128 89 1128 86 1127 C86 1126.01 86 1125.02 86 1124 C83.36 1124 80.72 1124 78 1124 C78 1122.68 78 1121.36 78 1120 C75.36 1120 72.72 1120 70 1120 C70 1118.68 70 1117.36 70 1116 C64.06 1116 58.12 1116 52 1116 C52 1115.01 52 1114.02 52 1113 C50.01432292 1113.03255208 48.02864583 1113.06510417 46.04296875 1113.09765625 C44 1113 44 1113 41 1112 C41 1111.01 41 1110.02 41 1109 C38.69 1108.67 36.38 1108.34 34 1108 C34 1107.01 34 1106.02 34 1105 C32.35 1105 30.7 1105 29 1105 C29 1104.01 29 1103.02 29 1102 C26.69 1102 24.38 1102 22 1102 C22 1100.68 22 1099.36 22 1098 C20.01432292 1098.03255208 18.02864583 1098.06510417 16.04296875 1098.09765625 C14 1098 14 1098 11 1097 C11 1096.01 11 1095.02 11 1094 C8.69 1094 6.38 1094 4 1094 C3.67 1092.68 3.34 1091.36 3 1090 C1.02 1090 -0.96 1090 -3 1090 C-3 1089.01 -3 1088.02 -3 1087 C-4.65 1087 -6.3 1087 -8 1087 C-8 1085.68 -8 1084.36 -8 1083 C-10.31 1082.67 -12.62 1082.34 -15 1082 C-15 1081.01 -15 1080.02 -15 1079 C-16.32 1079 -17.64 1079 -19 1079 C-19 1078.01 -19 1077.02 -19 1076 C-21.31 1076 -23.62 1076 -26 1076 C-26 1074.68 -26 1073.36 -26 1072 C-27.32 1072 -28.64 1072 -30 1072 C-30 1070.68 -30 1069.36 -30 1068 C-32.31 1068 -34.62 1068 -37 1068 C-37 1067.01 -37 1066.02 -37 1065 C-38.32 1065 -39.64 1065 -41 1065 C-41 1063.68 -41 1062.36 -41 1061 C-42.32 1061 -43.64 1061 -45 1061 C-45 1059.68 -45 1058.36 -45 1057 C-47.31 1057 -49.62 1057 -52 1057 C-52 1055.68 -52 1054.36 -52 1053 C-53.32 1053 -54.64 1053 -56 1053 C-56 1052.01 -56 1051.02 -56 1050 C-57.32 1050 -58.64 1050 -60 1050 C-60 1048.68 -60 1047.36 -60 1046 C-62.31 1046 -64.62 1046 -67 1046 C-67 1043.69 -67 1041.38 -67 1039 C-69.31 1039 -71.62 1039 -74 1039 C-74.33 1037.68 -74.66 1036.36 -75 1035 C-75.99 1035 -76.98 1035 -78 1035 C-78 1033.68 -78 1032.36 -78 1031 C-80.31 1030.67 -82.62 1030.34 -85 1030 C-85.33 1028.02 -85.66 1026.04 -86 1024 C-86.99 1024 -87.98 1024 -89 1024 C-89 1022.68 -89 1021.36 -89 1020 C-90.32 1020 -91.64 1020 -93 1020 C-93 1018.68 -93 1017.36 -93 1016 C-95.31 1015.67 -97.62 1015.34 -100 1015 C-100.495 1012.03 -100.495 1012.03 -101 1009 C-101.99 1009 -102.98 1009 -104 1009 C-104 1007.68 -104 1006.36 -104 1005 C-105.32 1005 -106.64 1005 -108 1005 C-108 1004.01 -108 1003.02 -108 1002 C-109.32 1001.67 -110.64 1001.34 -112 1001 C-112 1000.01 -112 999.02 -112 998 C-112.99 998 -113.98 998 -115 998 C-115 996.35 -115 994.7 -115 993 C-115.99 993 -116.98 993 -118 993 C-118.495 990.03 -118.495 990.03 -119 987 C-121.31 986.67 -123.62 986.34 -126 986 C-126 983.69 -126 981.38 -126 979 C-127.32 979 -128.64 979 -130 979 C-130 978.01 -130 977.02 -130 976 C-131.32 976 -132.64 976 -134 976 C-134 974.35 -134 972.7 -134 971 C-134.99 971 -135.98 971 -137 971 C-137.33 968.69 -137.66 966.38 -138 964 C-138.99 964 -139.98 964 -141 964 C-141 963.01 -141 962.02 -141 961 C-142.32 960.67 -143.64 960.34 -145 960 C-145 958.68 -145 957.36 -145 956 C-145.99 956 -146.98 956 -148 956 C-148.33 953.69 -148.66 951.38 -149 949 C-149.99 949 -150.98 949 -152 949 C-152 946.69 -152 944.38 -152 942 C-153.32 942 -154.64 942 -156 942 C-156 939.69 -156 937.38 -156 935 C-157.32 935 -158.64 935 -160 935 C-160 933.68 -160 932.36 -160 931 C-160.99 931 -161.98 931 -163 931 C-163.33 928.69 -163.66 926.38 -164 924 C-164.99 924 -165.98 924 -167 924 C-167 922.35 -167 920.7 -167 919 C-167.99 919 -168.98 919 -170 919 C-171.1577506 915.52674819 -171.06866652 912.63932552 -171 909 C-172.32 908.67 -173.64 908.34 -175 908 C-175 905.69 -175 903.38 -175 901 C-175.99 901 -176.98 901 -178 901 C-178 898.69 -178 896.38 -178 894 C-179.32 894 -180.64 894 -182 894 C-182 891.69 -182 889.38 -182 887 C-183.32 887 -184.64 887 -186 887 C-186 884.36 -186 881.72 -186 879 C-186.99 879 -187.98 879 -189 879 C-189 874.05 -189 869.1 -189 864 C-190.32 864 -191.64 864 -193 864 C-193 861.36 -193 858.72 -193 856 C-193.99 856 -194.98 856 -196 856 C-197.1577506 852.52674819 -197.06866652 849.63932552 -197 846 C-197.99 846 -198.98 846 -200 846 C-201.3271261 842.0186217 -201.06915913 838.14954773 -201 834 C-201.99 834 -202.98 834 -204 834 C-204 830.37 -204 826.74 -204 823 C-204.99 823 -205.98 823 -207 823 C-207.92553743 819.86149936 -208.11664647 817.06319222 -208.09765625 813.796875 C-208.09443359 812.8171875 -208.09121094 811.8375 -208.08789062 810.828125 C-208.07951172 809.81234375 -208.07113281 808.7965625 -208.0625 807.75 C-208.05798828 806.71875 -208.05347656 805.6875 -208.04882812 804.625 C-208.03706088 802.08327427 -208.02062011 799.54166681 -208 797 C-208.99 797 -209.98 797 -211 797 C-211.94137255 794.17588235 -212.11725382 792.47081968 -212.09765625 789.55078125 C-212.09443359 788.70322266 -212.09121094 787.85566406 -212.08789062 786.98242188 C-212.07951172 786.10134766 -212.07113281 785.22027344 -212.0625 784.3125 C-212.05798828 783.41982422 -212.05347656 782.52714844 -212.04882812 781.60742188 C-212.03704983 779.40488013 -212.02060164 777.20247401 -212 775 C-212.99 775 -213.98 775 -215 775 C-215 766.09 -215 757.18 -215 748 C-216.32 748 -217.64 748 -219 748 C-219 746.02 -219 744.04 -219 742 C-217.68 742 -216.36 742 -215 742 C-215 725.83 -215 709.66 -215 693 C-216.32 693 -217.64 693 -219 693 C-219 692.01 -219 691.02 -219 690 C-217.68 690 -216.36 690 -215 690 C-215 680.1 -215 670.2 -215 660 C-214.01 660 -213.02 660 -212 660 C-212.00523682 659.44014404 -212.01047363 658.88028809 -212.01586914 658.3034668 C-212.03666691 655.76482263 -212.04966904 653.22619641 -212.0625 650.6875 C-212.07087891 649.80642578 -212.07925781 648.92535156 -212.08789062 648.01757812 C-212.09111328 647.17001953 -212.09433594 646.32246094 -212.09765625 645.44921875 C-212.10289307 644.66893311 -212.10812988 643.88864746 -212.11352539 643.0847168 C-212 641 -212 641 -211 638 C-210.01 638 -209.02 638 -208 638 C-208.00523682 637.31897217 -208.01047363 636.63794434 -208.01586914 635.9362793 C-208.03664458 632.85336223 -208.04966198 629.7704599 -208.0625 626.6875 C-208.07087891 625.61564453 -208.07925781 624.54378906 -208.08789062 623.43945312 C-208.09272461 621.89741211 -208.09272461 621.89741211 -208.09765625 620.32421875 C-208.10289307 619.37635498 -208.10812988 618.42849121 -208.11352539 617.4519043 C-208 615 -208 615 -207 612 C-206.01 612 -205.02 612 -204 612 C-204 608.37 -204 604.74 -204 601 C-203.01 601 -202.02 601 -201 601 C-201 598.36 -201 595.72 -201 593 C-199.68 593 -198.36 593 -197 593 C-197 588.05 -197 583.1 -197 578 C-195.68 578 -194.36 578 -193 578 C-193 575.36 -193 572.72 -193 570 C-191.68 570 -190.36 570 -189 570 C-189 565.38 -189 560.76 -189 556 C-188.01 556 -187.02 556 -186 556 C-186 553.69 -186 551.38 -186 549 C-184.68 549 -183.36 549 -182 549 C-182 546.36 -182 543.72 -182 541 C-180.68 541 -179.36 541 -178 541 C-178 539.68 -178 538.36 -178 537 C-177.01 537 -176.02 537 -175 537 C-175.020625 535.9275 -175.04125 534.855 -175.0625 533.75 C-175.0142016 530.85209576 -174.86844115 528.71387859 -174 526 C-173.01 526 -172.02 526 -171 526 C-171 523.69 -171 521.38 -171 519 C-169.68 519 -168.36 519 -167 519 C-167 516.36 -167 513.72 -167 511 C-166.01 511 -165.02 511 -164 511 C-163.67 508.69 -163.34 506.38 -163 504 C-162.01 504 -161.02 504 -160 504 C-160 502.68 -160 501.36 -160 500 C-158.68 500 -157.36 500 -156 500 C-156 497.69 -156 495.38 -156 493 C-154.68 493 -153.36 493 -152 493 C-152 491.68 -152 490.36 -152 489 C-151.01 489 -150.02 489 -149 489 C-149 486.69 -149 484.38 -149 482 C-147.68 482 -146.36 482 -145 482 C-144.67 479.69 -144.34 477.38 -144 475 C-143.01 475 -142.02 475 -141 475 C-141 473.35 -141 471.7 -141 470 C-140.01 470 -139.02 470 -138 470 C-138 469.01 -138 468.02 -138 467 C-136.68 467 -135.36 467 -134 467 C-134 465.68 -134 464.36 -134 463 C-132.68 463 -131.36 463 -130 463 C-130 460.69 -130 458.38 -130 456 C-128.68 456 -127.36 456 -126 456 C-126 453.69 -126 451.38 -126 449 C-123.69 448.67 -121.38 448.34 -119 448 C-119 446.68 -119 445.36 -119 444 C-117.68 444 -116.36 444 -115 444 C-115 443.01 -115 442.02 -115 441 C-114.01 441 -113.02 441 -112 441 C-112 438.69 -112 436.38 -112 434 C-110.68 433.67 -109.36 433.34 -108 433 C-108 432.01 -108 431.02 -108 430 C-106.68 430 -105.36 430 -104 430 C-104 428.68 -104 427.36 -104 426 C-103.01 426 -102.02 426 -101 426 C-100.67 424.68 -100.34 423.36 -100 422 C-99.01 422 -98.02 422 -97 422 C-97 421.01 -97 420.02 -97 419 C-95.68 419 -94.36 419 -93 419 C-93 417.68 -93 416.36 -93 415 C-91.68 415 -90.36 415 -89 415 C-89 412.69 -89 410.38 -89 408 C-86.69 407.67 -84.38 407.34 -82 407 C-82 406.01 -82 405.02 -82 404 C-80.68 404 -79.36 404 -78 404 C-78 402.68 -78 401.36 -78 400 C-76.68 400 -75.36 400 -74 400 C-74 398.68 -74 397.36 -74 396 C-73.01 396 -72.02 396 -71 396 C-71 395.01 -71 394.02 -71 393 C-69.68 393 -68.36 393 -67 393 C-67 391.68 -67 390.36 -67 389 C-64.69 389 -62.38 389 -60 389 C-60 387.68 -60 386.36 -60 385 C-58.68 385 -57.36 385 -56 385 C-56 384.01 -56 383.02 -56 382 C-52.0186217 380.6728739 -48.14954773 380.93084087 -44 381 C-44 382.32 -44 383.64 -44 385 C-41.69 385 -39.38 385 -37 385 C-37 387.64 -37 390.28 -37 393 C-35.68 393 -34.36 393 -33 393 C-33 395.31 -33 397.62 -33 400 C-34.32 400.33 -35.64 400.66 -37 401 C-37 402.32 -37 403.64 -37 405 C-37.99 405 -38.98 405 -40 405 C-40 405.99 -40 406.98 -40 408 C-41.32 408 -42.64 408 -44 408 C-44 409.32 -44 410.64 -44 412 C-46.31 412 -48.62 412 -51 412 C-51.33 413.98 -51.66 415.96 -52 418 C-52.99 418 -53.98 418 -55 418 C-55.33 419.65 -55.66 421.3 -56 423 C-57.32 423 -58.64 423 -60 423 C-60 423.99 -60 424.98 -60 426 C-61.98 426.33 -63.96 426.66 -66 427 C-66 427.99 -66 428.98 -66 430 C-67.32 430 -68.64 430 -70 430 C-70 431.32 -70 432.64 -70 434 C-71.32 434 -72.64 434 -74 434 C-74 435.32 -74 436.64 -74 438 C-74.99 438 -75.98 438 -77 438 C-77.33 439.32 -77.66 440.64 -78 442 C-78.99 442 -79.98 442 -81 442 C-81 442.99 -81 443.98 -81 445 C-82.32 445 -83.64 445 -85 445 C-85 446.32 -85 447.64 -85 449 C-86.32 449 -87.64 449 -89 449 C-89 450.32 -89 451.64 -89 453 C-89.99 453 -90.98 453 -92 453 C-92 454.98 -92 456.96 -92 459 C-93.32 459.33 -94.64 459.66 -96 460 C-96.33 461.32 -96.66 462.64 -97 464 C-97.99 464 -98.98 464 -100 464 C-100 464.99 -100 465.98 -100 467 C-100.99 467 -101.98 467 -103 467 C-103 468.32 -103 469.64 -103 471 C-104.32 471 -105.64 471 -107 471 C-107 473.31 -107 475.62 -107 478 C-108.32 478 -109.64 478 -111 478 C-111 479.32 -111 480.64 -111 482 C-112.32 482 -113.64 482 -115 482 C-115 483.32 -115 484.64 -115 486 C-115.99 486 -116.98 486 -118 486 C-118.33 488.31 -118.66 490.62 -119 493 C-121.31 493.33 -123.62 493.66 -126 494 C-126 496.31 -126 498.62 -126 501 C-126.99 501 -127.98 501 -129 501 C-129 503.31 -129 505.62 -129 508 C-130.32 508 -131.64 508 -133 508 C-133.33 510.31 -133.66 512.62 -134 515 C-134.99 515 -135.98 515 -137 515 C-137 516.32 -137 517.64 -137 519 C-137.99 519 -138.98 519 -140 519 C-140.33 521.64 -140.66 524.28 -141 527 C-141.99 527 -142.98 527 -144 527 C-144 528.32 -144 529.64 -144 531 C-145.32 531 -146.64 531 -148 531 C-147.979375 532.093125 -147.95875 533.18625 -147.9375 534.3125 C-148 538 -148 538 -149 541 C-149.99 541 -150.98 541 -152 541 C-152 543.64 -152 546.28 -152 549 C-152.99 549 -153.98 549 -155 549 C-155 551.31 -155 553.62 -155 556 C-156.32 556.33 -157.64 556.66 -159 557 C-159 559.31 -159 561.62 -159 564 C-160.32 564 -161.64 564 -163 564 C-163 566.31 -163 568.62 -163 571 C-163.99 571 -164.98 571 -166 571 C-165.98839844 571.75925781 -165.97679687 572.51851562 -165.96484375 573.30078125 C-165.95582031 574.29464844 -165.94679688 575.28851562 -165.9375 576.3125 C-165.92589844 577.29863281 -165.91429687 578.28476562 -165.90234375 579.30078125 C-166 582 -166 582 -167 585 C-167.99 585 -168.98 585 -170 585 C-169.98839844 585.62648438 -169.97679687 586.25296875 -169.96484375 586.8984375 C-169.95582031 587.71570313 -169.94679688 588.53296875 -169.9375 589.375 C-169.92589844 590.18710937 -169.91429687 590.99921875 -169.90234375 591.8359375 C-170 594 -170 594 -171 596 C-171.99 596 -172.98 596 -174 596 C-174 598.97 -174 601.94 -174 605 C-174.99 605 -175.98 605 -177 605 C-176.98839844 605.75925781 -176.97679687 606.51851562 -176.96484375 607.30078125 C-176.95582031 608.29464844 -176.94679688 609.28851562 -176.9375 610.3125 C-176.92589844 611.29863281 -176.91429687 612.28476562 -176.90234375 613.30078125 C-177 616 -177 616 -178 619 C-178.99 619 -179.98 619 -181 619 C-181 622.96 -181 626.92 -181 631 C-182.32 631 -183.64 631 -185 631 C-184.99476318 631.65073486 -184.98952637 632.30146973 -184.98413086 632.97192383 C-184.96335062 635.91877274 -184.9503365 638.86560623 -184.9375 641.8125 C-184.92912109 642.83666016 -184.92074219 643.86082031 -184.91210938 644.91601562 C-184.90888672 645.89892578 -184.90566406 646.88183594 -184.90234375 647.89453125 C-184.89710693 648.80050049 -184.89187012 649.70646973 -184.88647461 650.63989258 C-185 653 -185 653 -186 656 C-186.99 656 -187.98 656 -189 656 C-189 667.22 -189 678.44 -189 690 C-189.99 690 -190.98 690 -192 690 C-192 693.63 -192 697.26 -192 701 C-191.01 701 -190.02 701 -189 701 C-189 701.99 -189 702.98 -189 704 C-189.99 704 -190.98 704 -192 704 C-192 712.58 -192 721.16 -192 730 C-191.01 730 -190.02 730 -189 730 C-189 733.63 -189 737.26 -189 741 C-189.99 741 -190.98 741 -192 741 C-192 743.64 -192 746.28 -192 749 C-191.01 749 -190.02 749 -189 749 C-189 758.9 -189 768.8 -189 779 C-188.01 779 -187.02 779 -186 779 C-185.05862745 781.82411765 -184.88274618 783.52918032 -184.90234375 786.44921875 C-184.90556641 787.29677734 -184.90878906 788.14433594 -184.91210938 789.01757812 C-184.92467773 790.33918945 -184.92467773 790.33918945 -184.9375 791.6875 C-184.94201172 792.58017578 -184.94652344 793.47285156 -184.95117188 794.39257812 C-184.96295017 796.59511987 -184.97939836 798.79752599 -185 801 C-183.68 801 -182.36 801 -181 801 C-181 805.95 -181 810.9 -181 816 C-180.01 816 -179.02 816 -178 816 C-176.71682108 819.84953676 -176.93356363 822.94738135 -177 827 C-176.01 827 -175.02 827 -174 827 C-174 831.62 -174 836.24 -174 841 C-172.68 841.33 -171.36 841.66 -170 842 C-170 844.31 -170 846.62 -170 849 C-169.01 849 -168.02 849 -167 849 C-166.06380187 852.15506142 -165.8942877 854.96586502 -165.9375 858.25 C-165.94652344 859.14203125 -165.95554687 860.0340625 -165.96484375 860.953125 C-165.97644531 861.62859375 -165.98804688 862.3040625 -166 863 C-165.01 863 -164.02 863 -163 863 C-163 865.64 -163 868.28 -163 871 C-161.68 871 -160.36 871 -159 871 C-159 873.64 -159 876.28 -159 879 C-157.68 879 -156.36 879 -155 879 C-155 881.31 -155 883.62 -155 886 C-154.01 886 -153.02 886 -152 886 C-152 888.31 -152 890.62 -152 893 C-150.68 893.33 -149.36 893.66 -148 894 C-148 897.3 -148 900.6 -148 904 C-146.68 904 -145.36 904 -144 904 C-144 905.32 -144 906.64 -144 908 C-143.01 908 -142.02 908 -141 908 C-140.67 910.31 -140.34 912.62 -140 915 C-139.01 915 -138.02 915 -137 915 C-137 917.64 -137 920.28 -137 923 C-135.68 923 -134.36 923 -133 923 C-133 924.32 -133 925.64 -133 927 C-132.01 927 -131.02 927 -130 927 C-129.67 929.31 -129.34 931.62 -129 934 C-128.01 934 -127.02 934 -126 934 C-126 936.31 -126 938.62 -126 941 C-124.68 941 -123.36 941 -122 941 C-122 942.32 -122 943.64 -122 945 C-120.68 945 -119.36 945 -118 945 C-118 946.32 -118 947.64 -118 949 C-116.68 949 -115.36 949 -114 949 C-114 950.32 -114 951.64 -114 953 C-113.01 953 -112.02 953 -111 953 C-111 955.31 -111 957.62 -111 960 C-109.68 960 -108.36 960 -107 960 C-107 962.31 -107 964.62 -107 967 C-105.68 967 -104.36 967 -103 967 C-103 968.32 -103 969.64 -103 971 C-102.01 971 -101.02 971 -100 971 C-100 972.32 -100 973.64 -100 975 C-98.68 975 -97.36 975 -96 975 C-96 975.99 -96 976.98 -96 978 C-94.68 978 -93.36 978 -92 978 C-92 979.65 -92 981.3 -92 983 C-91.01 983 -90.02 983 -89 983 C-89 983.99 -89 984.98 -89 986 C-87.68 986 -86.36 986 -85 986 C-85 987.32 -85 988.64 -85 990 C-83.68 990 -82.36 990 -81 990 C-81 990.99 -81 991.98 -81 993 C-79.68 993.33 -78.36 993.66 -77 994 C-77 994.99 -77 995.98 -77 997 C-76.01 997 -75.02 997 -74 997 C-74 998.32 -74 999.64 -74 1001 C-72.68 1001 -71.36 1001 -70 1001 C-70 1001.99 -70 1002.98 -70 1004 C-68.68 1004 -67.36 1004 -66 1004 C-66 1005.32 -66 1006.64 -66 1008 C-65.01 1008 -64.02 1008 -63 1008 C-63 1009.32 -63 1010.64 -63 1012 C-61.68 1012 -60.36 1012 -59 1012 C-59 1012.99 -59 1013.98 -59 1015 C-57.68 1015 -56.36 1015 -55 1015 C-55 1016.32 -55 1017.64 -55 1019 C-53.68 1019 -52.36 1019 -51 1019 C-51 1020.32 -51 1021.64 -51 1023 C-50.01 1023 -49.02 1023 -48 1023 C-48 1024.32 -48 1025.64 -48 1027 C-46.68 1027 -45.36 1027 -44 1027 C-44 1027.99 -44 1028.98 -44 1030 C-42.68 1030 -41.36 1030 -40 1030 C-40 1031.32 -40 1032.64 -40 1034 C-37.69 1034 -35.38 1034 -33 1034 C-33 1035.32 -33 1036.64 -33 1038 C-30.69 1038 -28.38 1038 -26 1038 C-26 1038.99 -26 1039.98 -26 1041 C-23.69 1041.33 -21.38 1041.66 -19 1042 C-18.67 1042.99 -18.34 1043.98 -18 1045 C-17.01 1045.33 -16.02 1045.66 -15 1046 C-15 1003.1 -15 960.2 -15 916 C-14.01 916 -13.02 916 -12 916 C-12 909.73 -12 903.46 -12 897 C-12.99 897 -13.98 897 -15 897 C-15 775.89 -15 654.78 -15 530 C-14.01 530 -13.02 530 -12 530 C-12 499.31 -12 468.62 -12 437 C-12.99 437 -13.98 437 -15 437 C-15 396.74 -15 356.48 -15 315 C-14.01 315 -13.02 315 -12 315 C-12 226.89 -12 138.78 -12 48 C-12.99 48 -13.98 48 -15 48 C-15 33.48 -15 18.96 -15 4 C-14.01 3.67 -13.02 3.34 -12 3 C-11.67 2.01 -11.34 1.02 -11 0 C-6.94952424 -1.35015859 -4.2079832 -0.62084998 0 0 Z " fill="#FFFFFF" transform="translate(723,52)"/>
<path d="M0 0 C63.69 0 127.38 0 193 0 C193 1.32 193 2.64 193 4 C194.32 4 195.64 4 197 4 C197 6.64 197 9.28 197 12 C195.68 12 194.36 12 193 12 C193 24.54 193 37.08 193 50 C192.01 50 191.02 50 190 50 C190.0309375 51.6396875 190.0309375 51.6396875 190.0625 53.3125 C190 57 190 57 189 60 C185.535 60.495 185.535 60.495 182 61 C181.67 59.68 181.34 58.36 181 57 C180.01 57 179.02 57 178 57 C178 57.99 178 58.98 178 60 C175.69 60 173.38 60 171 60 C171 59.01 171 58.02 171 57 C169.68 57 168.36 57 167 57 C167 49.41 167 41.82 167 34 C165.68 34 164.36 34 163 34 C163 33.01 163 32.02 163 31 C162.24074219 31.01160156 161.48148438 31.02320313 160.69921875 31.03515625 C159.70535156 31.04417969 158.71148437 31.05320312 157.6875 31.0625 C156.70136719 31.07410156 155.71523438 31.08570313 154.69921875 31.09765625 C152 31 152 31 149 30 C149 29.01 149 28.02 149 27 C129.53 27 110.06 27 90 27 C90 30.63 90 34.26 90 38 C89.67 38.99 89.34 39.98 89 41 C88.01 41 87.02 41 86 41 C86 64.43 86 87.86 86 112 C86.99 112 87.98 112 89 112 C89 110.68 89 109.36 89 108 C91.31 108.33 93.62 108.66 96 109 C96 109.99 96 110.98 96 112 C98.64 112 101.28 112 104 112 C104 111.01 104 110.02 104 109 C107.8215538 107.72614873 111.4068447 107.87646812 115.38671875 107.90234375 C116.20372757 107.9037587 117.02073639 107.90517365 117.86250305 107.90663147 C120.47087268 107.91222706 123.07915634 107.92477871 125.6875 107.9375 C127.45637897 107.94251557 129.22525928 107.94707838 130.99414062 107.95117188 C135.32946019 107.96219504 139.66471552 107.97945662 144 108 C144 103.38 144 98.76 144 94 C145.32 93.67 146.64 93.34 148 93 C148 92.01 148 91.02 148 90 C147.01 90 146.02 90 145 90 C145 88.68 145 87.36 145 86 C145.99 86 146.98 86 148 86 C148 84.68 148 83.36 148 82 C154.27 82 160.54 82 167 82 C167 83.32 167 84.64 167 86 C168.32 86 169.64 86 171 86 C171 90.95 171 95.9 171 101 C169.68 101 168.36 101 167 101 C167 101.99 167 102.98 167 104 C168.32 104 169.64 104 171 104 C171 105.65 171 107.3 171 109 C169.68 109 168.36 109 167 109 C167 109.99 167 110.98 167 112 C167.99 112 168.98 112 170 112 C170.33 114.31 170.66 116.62 171 119 C169.68 119.33 168.36 119.66 167 120 C167 120.99 167 121.98 167 123 C167.99 123 168.98 123 170 123 C171.15972768 127.15013287 171.1438434 131.16843389 171.1328125 135.44921875 C171.13376923 136.26244095 171.13472595 137.07566315 171.13571167 137.91352844 C171.13639076 139.6273303 171.1345554 141.34113476 171.13037109 143.05493164 C171.12499822 145.68837184 171.13033586 148.32164308 171.13671875 150.95507812 C171.13605833 152.61979204 171.13477791 154.28450586 171.1328125 155.94921875 C171.13483673 156.74083908 171.13686096 157.53245941 171.13894653 158.34806824 C171.11496487 163.88503513 171.11496487 163.88503513 170 165 C168.36527118 165.08700342 166.72685945 165.10701063 165.08984375 165.09765625 C164.10048828 165.09443359 163.11113281 165.09121094 162.09179688 165.08789062 C161.05087891 165.07951172 160.00996094 165.07113281 158.9375 165.0625 C157.89271484 165.05798828 156.84792969 165.05347656 155.77148438 165.04882812 C153.1809334 165.03699913 150.59049441 165.02051689 148 165 C148 163.35 148 161.7 148 160 C147.01 160 146.02 160 145 160 C145 159.01 145 158.02 145 157 C145.99 157 146.98 157 148 157 C148 155.68 148 154.36 148 153 C147.01 153 146.02 153 145 153 C143.99890485 149.68929162 143.89643866 146.69915231 143.9375 143.25 C143.94652344 142.26515625 143.95554687 141.2803125 143.96484375 140.265625 C143.98224609 139.14414063 143.98224609 139.14414063 144 138 C143.01 138 142.02 138 141 138 C141 137.01 141 136.02 141 135 C127.47 135 113.94 135 100 135 C100 133.68 100 132.36 100 131 C99.01 131 98.02 131 97 131 C96.67 132.32 96.34 133.64 96 135 C92.7 135 89.4 135 86 135 C86 159.42 86 183.84 86 209 C86.99 209 87.98 209 89 209 C90.0712828 215.02596573 90.09945415 220.88909517 90 227 C93.3 227 96.6 227 100 227 C100 225.68 100 224.36 100 223 C101.32 223 102.64 223 104 223 C104 224.32 104 225.64 104 227 C107.63 227 111.26 227 115 227 C115 225.68 115 224.36 115 223 C132.16 223 149.32 223 167 223 C167 221.68 167 220.36 167 219 C167.99 219 168.98 219 170 219 C170 214.38 170 209.76 170 205 C171.32 204.67 172.64 204.34 174 204 C174 198.06 174 192.12 174 186 C175.32 186 176.64 186 178 186 C178 185.01 178 184.02 178 183 C182.95 183 187.9 183 193 183 C193 183.99 193 184.98 193 186 C194.32 186 195.64 186 197 186 C197 187.32 197 188.64 197 190 C198.32 190 199.64 190 201 190 C200.67 191.32 200.34 192.64 200 194 C199.01 194 198.02 194 197 194 C197 207.2 197 220.4 197 234 C195.68 234.33 194.36 234.66 193 235 C193 236.98 193 238.96 193 241 C194.32 241.33 195.64 241.66 197 242 C197 243.32 197 244.64 197 246 C195.68 246 194.36 246 193 246 C193 248.31 193 250.62 193 253 C184.42 253 175.84 253 167 253 C167 252.01 167 251.02 167 250 C126.74 250 86.48 250 45 250 C45 250.99 45 251.98 45 253 C43.68 253 42.36 253 41 253 C41 252.01 41 251.02 41 250 C33.74 250 26.48 250 19 250 C19 250.99 19 251.98 19 253 C16.36 253 13.72 253 11 253 C11 252.01 11 251.02 11 250 C9.68 250 8.36 250 7 250 C6.97314905 247.52076199 6.95323453 245.0418116 6.9375 242.5625 C6.92912109 241.85544922 6.92074219 241.14839844 6.91210938 240.41992188 C6.90346412 238.61306441 6.94779989 236.80612397 7 235 C8 234 8 234 11.0625 233.9375 C12.031875 233.958125 13.00125 233.97875 14 234 C14.33 232.68 14.66 231.36 15 230 C16.32 230 17.64 230 19 230 C19 229.01 19 228.02 19 227 C21.31 227 23.62 227 26 227 C26 208.85 26 190.7 26 172 C26.99 172 27.98 172 29 172 C29 134.05 29 96.1 29 57 C28.01 57 27.02 57 26 57 C26 48.42 26 39.84 26 31 C24.68 31 23.36 31 22 31 C22 29.68 22 28.36 22 27 C21.44014404 27.00523682 20.88028809 27.01047363 20.3034668 27.01586914 C17.76482263 27.03666691 15.22619641 27.04966904 12.6875 27.0625 C11.80642578 27.07087891 10.92535156 27.07925781 10.01757812 27.08789062 C9.17001953 27.09111328 8.32246094 27.09433594 7.44921875 27.09765625 C6.27879028 27.10551147 6.27879028 27.10551147 5.0847168 27.11352539 C3 27 3 27 0 26 C0 25.01 0 24.02 0 23 C-0.99 23 -1.98 23 -3 23 C-3.96205088 16.62641289 -4.10655578 10.44070471 -4 4 C-2.68 4 -1.36 4 0 4 C0 2.68 0 1.36 0 0 Z " fill="#FFFFFF" transform="translate(278,1308)"/>
<path d="M0 0 C80.19 0.495 80.19 0.495 162 1 C162 1.99 162 2.98 162 4 C165.96 4 169.92 4 174 4 C174 3.01 174 2.02 174 1 C176.64 1 179.28 1 182 1 C182 1.99 182 2.98 182 4 C182.99 4 183.98 4 185 4 C185 2.68 185 1.36 185 0 C186.98 0.495 186.98 0.495 189 1 C189 1.99 189 2.98 189 4 C190.32 4 191.64 4 193 4 C193.02903577 7.10414702 193.0468107 10.20825909 193.0625 13.3125 C193.07087891 14.19357422 193.07925781 15.07464844 193.08789062 15.98242188 C193.09111328 16.82998047 193.09433594 17.67753906 193.09765625 18.55078125 C193.10289307 19.33106689 193.10812988 20.11135254 193.11352539 20.9152832 C193 23 193 23 192 26 C191.01 26 190.02 26 189 26 C189 36.23 189 46.46 189 57 C187.68 57 186.36 57 185 57 C185 58.32 185 59.64 185 61 C180.05 61 175.1 61 170 61 C170 59.68 170 58.36 170 57 C168.68 57 167.36 57 166 57 C166 54.36 166 51.72 166 49 C165.01 49 164.02 49 163 49 C163 45.37 163 41.74 163 38 C163.99 38 164.98 38 166 38 C166 37.01 166 36.02 166 35 C165.01 35 164.02 35 163 35 C163 33.68 163 32.36 163 31 C160.69 30.67 158.38 30.34 156 30 C156 29.01 156 28.02 156 27 C140.82 27 125.64 27 110 27 C110 26.01 110 25.02 110 24 C103.07 24 96.14 24 89 24 C89 24.99 89 25.98 89 27 C87.68 27 86.36 27 85 27 C85 28.32 85 29.64 85 31 C86.32 31 87.64 31 89 31 C88.505 35.95 88.505 35.95 88 41 C87.01 41 86.02 41 85 41 C85 53.54 85 66.08 85 79 C84.01 79 83.02 79 82 79 C82 82.63 82 86.26 82 90 C82.99 90 83.98 90 85 90 C85 94.95 85 99.9 85 105 C84.01 105 83.02 105 82 105 C82 105.99 82 106.98 82 108 C82.99 108 83.98 108 85 108 C85 109.32 85 110.64 85 112 C88.63 112 92.26 112 96 112 C96 111.01 96 110.02 96 109 C98.31 109 100.62 109 103 109 C103 109.99 103 110.98 103 112 C105.64 112 108.28 112 111 112 C111 110.68 111 109.36 111 108 C120.57 108 130.14 108 140 108 C140 107.01 140 106.02 140 105 C141.32 105 142.64 105 144 105 C144 101.04 144 97.08 144 93 C145.32 93 146.64 93 148 93 C148 92.01 148 91.02 148 90 C146.68 90 145.36 90 144 90 C144 88.68 144 87.36 144 86 C146.31 86 148.62 86 151 86 C151 84.68 151 83.36 151 82 C156.28 82 161.56 82 167 82 C167 83.32 167 84.64 167 86 C168.32 86 169.64 86 171 86 C171.09507063 92.43311296 171.15316726 98.65758005 170 105 C169.01 105 168.02 105 167 105 C167 115.89 167 126.78 167 138 C167.99 138 168.98 138 170 138 C170.82273212 140.88201345 171.12834581 143.44776452 171.1328125 146.44140625 C171.13410156 147.27220703 171.13539063 148.10300781 171.13671875 148.95898438 C171.13285156 149.81814453 171.12898438 150.67730469 171.125 151.5625 C171.12886719 152.42552734 171.13273437 153.28855469 171.13671875 154.17773438 C171.13478516 155.42200195 171.13478516 155.42200195 171.1328125 156.69140625 C171.13168457 157.44623291 171.13055664 158.20105957 171.12939453 158.97875977 C171 161 171 161 170 164 C167.22903503 164.92365499 165.55139327 165.12853885 162.69140625 165.1328125 C161.44713867 165.13474609 161.44713867 165.13474609 160.17773438 165.13671875 C159.31470703 165.13285156 158.45167969 165.12898438 157.5625 165.125 C156.70333984 165.12886719 155.84417969 165.13273437 154.95898438 165.13671875 C154.12818359 165.13542969 153.29738281 165.13414062 152.44140625 165.1328125 C151.68545166 165.13168457 150.92949707 165.13055664 150.15063477 165.12939453 C148 165 148 165 144 164 C144 155.75 144 147.5 144 139 C141.69 138.67 139.38 138.34 137 138 C137 137.01 137 136.02 137 135 C135.29686646 135.00785522 135.29686646 135.00785522 133.55932617 135.01586914 C129.34937324 135.03396038 125.13942376 135.04544714 120.92944336 135.05493164 C119.10684634 135.0599624 117.28425335 135.06678769 115.46166992 135.07543945 C112.84292606 135.08755997 110.22423553 135.09324086 107.60546875 135.09765625 C106.38188911 135.10539818 106.38188911 135.10539818 105.1335907 135.11329651 C101.82986071 135.1136246 99.15676862 135.05225621 96 134 C96 133.01 96 132.02 96 131 C94.68 131 93.36 131 92 131 C92 131.99 92 132.98 92 134 C89.69 134 87.38 134 85 134 C85 137.96 85 141.92 85 146 C84.01 146 83.02 146 82 146 C82 148.31 82 150.62 82 153 C82.99 153 83.98 153 85 153 C85 172.47 85 191.94 85 212 C85.99 212 86.98 212 88 212 C88 213.32 88 214.64 88 216 C87.01 216 86.02 216 85 216 C85 217.32 85 218.64 85 220 C86.32 220 87.64 220 89 220 C89 220.99 89 221.98 89 223 C113.42 223 137.84 223 163 223 C163 222.01 163 221.02 163 220 C163.99 220 164.98 220 166 220 C166 217.36 166 214.72 166 212 C167.32 212 168.64 212 170 212 C170 204.74 170 197.48 170 190 C170.99 190 171.98 190 173 190 C173 188.68 173 187.36 173 186 C174.32 186 175.64 186 177 186 C177 185.01 177 184.02 177 183 C179.64 183 182.28 183 185 183 C185 183.99 185 184.98 185 186 C186.32 186 187.64 186 189 186 C189 185.01 189 184.02 189 183 C190.32 183 191.64 183 193 183 C193 183.99 193 184.98 193 186 C194.32 186 195.64 186 197 186 C197 189.96 197 193.92 197 198 C195.68 198 194.36 198 193 198 C193 215.16 193 232.32 193 250 C191.68 250 190.36 250 189 250 C189 250.99 189 251.98 189 253 C187.68 253 186.36 253 185 253 C185 252.01 185 251.02 185 250 C134.84 250 84.68 250 33 250 C33 250.99 33 251.98 33 253 C30.69 253 28.38 253 26 253 C26 252.01 26 251.02 26 250 C24.68 250 23.36 250 22 250 C22 250.99 22 251.98 22 253 C20.68 253 19.36 253 18 253 C18 252.01 18 251.02 18 250 C16.68 250 15.36 250 14 250 C14 250.99 14 251.98 14 253 C11.69 253 9.38 253 7 253 C7 246.73 7 240.46 7 234 C9.31 234 11.62 234 14 234 C14 232.68 14 231.36 14 230 C15.32 230 16.64 230 18 230 C18 229.01 18 228.02 18 227 C19.32 227 20.64 227 22 227 C21.814375 226.071875 21.62875 225.14375 21.4375 224.1875 C20.68258045 219.09179306 21.40247867 214.08352762 22 209 C22.99 209 23.98 209 25 209 C24.99214478 207.32828735 24.99214478 207.32828735 24.98413086 205.62280273 C24.96595094 201.46493339 24.9545207 197.30706751 24.94506836 193.14916992 C24.94005775 191.3539165 24.93324745 189.55866713 24.92456055 187.76342773 C24.9123511 185.17430622 24.90673884 182.58523893 24.90234375 179.99609375 C24.89718246 179.20101913 24.89202118 178.40594452 24.88670349 177.58677673 C24.88624293 172.95101044 25.23115689 168.5731533 26 164 C26.99 164 27.98 164 29 164 C29 161.36 29 158.72 29 156 C28.01 156 27.02 156 26 156 C25.86775246 143.98402509 25.73725938 131.96803243 25.60884857 119.95201588 C25.54913447 114.36912433 25.48887404 108.78623992 25.42724609 103.20336914 C25.16194257 79.13513735 24.89795766 55.07002234 25 31 C23.68 31 22.36 31 21 31 C21 29.68 21 28.36 21 27 C20.01 27 19.02 27 18 27 C18 28.32 18 29.64 18 31 C16.68 30.67 15.36 30.34 14 30 C14 29.01 14 28.02 14 27 C9.05 27 4.1 27 -1 27 C-1 26.01 -1 25.02 -1 24 C-1.99 24 -2.98 24 -4 24 C-4 17.4 -4 10.8 -4 4 C-3.01 4 -2.02 4 -1 4 C-0.67 2.68 -0.34 1.36 0 0 Z " fill="#FFFFFF" transform="translate(957,1308)"/>
<path d="M0 0 C5.94 0 11.88 0 18 0 C18 0.99 18 1.98 18 3 C25.26 3 32.52 3 40 3 C40 2.01 40 1.02 40 0 C43.96 0 47.92 0 52 0 C52 0.99 52 1.98 52 3 C52.83978394 2.99214478 52.83978394 2.99214478 53.6965332 2.98413086 C56.23517737 2.96333309 58.77380359 2.95033096 61.3125 2.9375 C62.63411133 2.92493164 62.63411133 2.92493164 63.98242188 2.91210938 C64.82998047 2.90888672 65.67753906 2.90566406 66.55078125 2.90234375 C67.33106689 2.89710693 68.11135254 2.89187012 68.9152832 2.88647461 C71 3 71 3 74 4 C74 4.99 74 5.98 74 7 C76.64 7 79.28 7 82 7 C82 8.32 82 9.64 82 11 C87.94 11 93.88 11 100 11 C100 12.32 100 13.64 100 15 C102.64 15 105.28 15 108 15 C108 15.99 108 16.98 108 18 C109.32 18 110.64 18 112 18 C112.0272367 20.52090778 112.04695207 23.04151457 112.0625 25.5625 C112.07087891 26.26697266 112.07925781 26.97144531 112.08789062 27.69726562 C112.10882603 32.24024798 111.74800682 36.51784892 111 41 C110.01 41 109.02 41 108 41 C108 53.21 108 65.42 108 78 C106.68 78 105.36 78 104 78 C104 79.32 104 80.64 104 82 C97.73 82 91.46 82 85 82 C85 81.01 85 80.02 85 79 C83.68 79 82.36 79 81 79 C81 71.08 81 63.16 81 55 C80.01 55 79.02 55 78 55 C77.67 53.02 77.34 51.04 77 49 C76.01 48.67 75.02 48.34 74 48 C74 47.01 74 46.02 74 45 C72.68 44.67 71.36 44.34 70 44 C70 43.01 70 42.02 70 41 C68.68 41 67.36 41 66 41 C66 40.01 66 39.02 66 38 C63.69 38 61.38 38 59 38 C59 36.68 59 35.36 59 34 C58.44014404 34.00523682 57.88028809 34.01047363 57.3034668 34.01586914 C54.76482263 34.03666691 52.22619641 34.04966904 49.6875 34.0625 C48.36588867 34.07506836 48.36588867 34.07506836 47.01757812 34.08789062 C46.17001953 34.09111328 45.32246094 34.09433594 44.44921875 34.09765625 C43.66893311 34.10289307 42.88864746 34.10812988 42.0847168 34.11352539 C40 34 40 34 37 33 C37 32.01 37 31.02 37 30 C24.79 30 12.58 30 0 30 C0 30.99 0 31.98 0 33 C-6.02596573 34.0712828 -11.88909517 34.09945415 -18 34 C-18 35.32 -18 36.64 -18 38 C-20.64 38 -23.28 38 -26 38 C-26 38.99 -26 39.98 -26 41 C-26.99 41 -27.98 41 -29 41 C-29 42.32 -29 43.64 -29 45 C-30.32 45 -31.64 45 -33 45 C-33 45.99 -33 46.98 -33 48 C-36.465 48.495 -36.465 48.495 -40 49 C-40.33 50.32 -40.66 51.64 -41 53 C-41.99 53 -42.98 53 -44 53 C-44.33 54.98 -44.66 56.96 -45 59 C-45.99 59 -46.98 59 -48 59 C-48.33 60.65 -48.66 62.3 -49 64 C-49.99 64 -50.98 64 -52 64 C-52 66.31 -52 68.62 -52 71 C-52.99 71 -53.98 71 -55 71 C-55 72.32 -55 73.64 -55 75 C-56.32 75 -57.64 75 -59 75 C-59 78.3 -59 81.6 -59 85 C-60.32 85.33 -61.64 85.66 -63 86 C-63 91.94 -63 97.88 -63 104 C-63.99 104 -64.98 104 -66 104 C-66 111.26 -66 118.52 -66 126 C-65.01 126 -64.02 126 -63 126 C-63 135.9 -63 145.8 -63 156 C-61.68 156 -60.36 156 -59 156 C-59 159.63 -59 163.26 -59 167 C-57.68 167 -56.36 167 -55 167 C-55 169.31 -55 171.62 -55 174 C-54.01 174 -53.02 174 -52 174 C-52 175.32 -52 176.64 -52 178 C-50.68 178 -49.36 178 -48 178 C-48 180.31 -48 182.62 -48 185 C-46.68 185 -45.36 185 -44 185 C-44 186.32 -44 187.64 -44 189 C-43.01 189 -42.02 189 -41 189 C-40.505 192.465 -40.505 192.465 -40 196 C-39.01 196 -38.02 196 -37 196 C-37 197.32 -37 198.64 -37 200 C-35.68 200 -34.36 200 -33 200 C-33 201.32 -33 202.64 -33 204 C-30.69 204 -28.38 204 -26 204 C-26 204.99 -26 205.98 -26 207 C-24.68 207 -23.36 207 -22 207 C-22 208.32 -22 209.64 -22 211 C-19.69 211.33 -17.38 211.66 -15 212 C-15 212.99 -15 213.98 -15 215 C-12.69 215 -10.38 215 -8 215 C-8 216.32 -8 217.64 -8 219 C-5.36 219 -2.72 219 0 219 C0 219.99 0 220.98 0 222 C23.1 222 46.2 222 70 222 C70 221.01 70 220.02 70 219 C72.31 219 74.62 219 77 219 C77 217.68 77 216.36 77 215 C79.64 215 82.28 215 85 215 C85 213.68 85 212.36 85 211 C87.31 211 89.62 211 92 211 C92 210.01 92 209.02 92 208 C95.39768868 206.96841259 98.52139963 206.86622404 102.0625 206.875 C103.10535156 206.87242187 104.14820313 206.86984375 105.22265625 206.8671875 C108 207 108 207 111 208 C112.02319033 211.06957098 112.13371939 213.22440323 112.125 216.4375 C112.12757813 217.38496094 112.13015625 218.33242187 112.1328125 219.30859375 C112.01473475 221.70140459 111.68112635 223.71336153 111 226 C110.01 226 109.02 226 108 226 C107.67 228.31 107.34 230.62 107 233 C106.01 233 105.02 233 104 233 C104 234.65 104 236.3 104 238 C102.68 238 101.36 238 100 238 C100 238.99 100 239.98 100 241 C97.36 241.33 94.72 241.66 92 242 C92 242.66 92 243.32 92 244 C88.52674819 245.1577506 85.63932552 245.06866652 82 245 C82 246.32 82 247.64 82 249 C78.37 249 74.74 249 71 249 C71 250.32 71 251.64 71 253 C67.37 253 63.74 253 60 253 C60 253.99 60 254.98 60 256 C52.41 256 44.82 256 37 256 C37 257.32 37 258.64 37 260 C35.1128125 260.0309375 35.1128125 260.0309375 33.1875 260.0625 C32.47980469 260.07410156 31.77210938 260.08570313 31.04296875 260.09765625 C29 260 29 260 26 259 C26 258.01 26 257.02 26 256 C21.05 256 16.1 256 11 256 C11 256.99 11 257.98 11 259 C7.71480525 260.09506492 5.26336585 260.09960608 1.8125 260.0625 C0.72582031 260.05347656 -0.36085938 260.04445313 -1.48046875 260.03515625 C-2.31191406 260.02355469 -3.14335938 260.01195312 -4 260 C-4 258.68 -4 257.36 -4 256 C-12.58 256 -21.16 256 -30 256 C-30 255.01 -30 254.02 -30 253 C-32.31 253 -34.62 253 -37 253 C-37.33 251.68 -37.66 250.36 -38 249 C-42.62 249 -47.24 249 -52 249 C-52 247.68 -52 246.36 -52 245 C-53.98567708 245.03255208 -55.97135417 245.06510417 -57.95703125 245.09765625 C-60 245 -60 245 -63 244 C-63 243.34 -63 242.68 -63 242 C-64.32 242 -65.64 242 -67 242 C-67 240.68 -67 239.36 -67 238 C-69.31 238 -71.62 238 -74 238 C-74.33 236.68 -74.66 235.36 -75 234 C-75.99 234 -76.98 234 -78 234 C-78 233.01 -78 232.02 -78 231 C-79.32 231 -80.64 231 -82 231 C-82 229.68 -82 228.36 -82 227 C-84.31 227 -86.62 227 -89 227 C-89 225.68 -89 224.36 -89 223 C-90.32 223 -91.64 223 -93 223 C-93 221.68 -93 220.36 -93 219 C-94.32 219 -95.64 219 -97 219 C-97 217.68 -97 216.36 -97 215 C-97.99 215 -98.98 215 -100 215 C-100.33 212.69 -100.66 210.38 -101 208 C-101.99 208 -102.98 208 -104 208 C-104 207.01 -104 206.02 -104 205 C-105.32 205 -106.64 205 -108 205 C-108 203.68 -108 202.36 -108 201 C-109.32 201 -110.64 201 -112 201 C-112 199.35 -112 197.7 -112 196 C-112.99 196 -113.98 196 -115 196 C-115.33 193.69 -115.66 191.38 -116 189 C-116.99 189 -117.98 189 -119 189 C-119 184.38 -119 179.76 -119 175 C-120.32 175 -121.64 175 -123 175 C-123 170.05 -123 165.1 -123 160 C-123.99 160 -124.98 160 -126 160 C-127.2039337 156.24600202 -127.09877617 152.66782588 -127.0625 148.75 C-127.05347656 147.48671875 -127.04445313 146.2234375 -127.03515625 144.921875 C-127.02355469 143.95765625 -127.01195312 142.9934375 -127 142 C-127.99 142 -128.98 142 -130 142 C-130 133.09 -130 124.18 -130 115 C-129.01 115 -128.02 115 -127 115 C-127.01160156 113.95199219 -127.02320313 112.90398437 -127.03515625 111.82421875 C-127.04453655 110.44531428 -127.0536365 109.06640789 -127.0625 107.6875 C-127.07087891 106.99720703 -127.07925781 106.30691406 -127.08789062 105.59570312 C-127.10307906 102.4516975 -127.00193327 100.00579981 -126 97 C-125.01 97 -124.02 97 -123 97 C-123 92.05 -123 87.1 -123 82 C-121.68 82 -120.36 82 -119 82 C-119 78.37 -119 74.74 -119 71 C-118.01 71 -117.02 71 -116 71 C-115.67 68.36 -115.34 65.72 -115 63 C-114.01 63 -113.02 63 -112 63 C-112 61.68 -112 60.36 -112 59 C-110.68 59 -109.36 59 -108 59 C-107.67 56.69 -107.34 54.38 -107 52 C-105.02 52 -103.04 52 -101 52 C-101 49.69 -101 47.38 -101 45 C-99.02 44.505 -99.02 44.505 -97 44 C-97 43.01 -97 42.02 -97 41 C-95.68 41 -94.36 41 -93 41 C-93 39.68 -93 38.36 -93 37 C-91.68 37 -90.36 37 -89 37 C-89 35.68 -89 34.36 -89 33 C-86.69 33 -84.38 33 -82 33 C-82 30.69 -82 28.38 -82 26 C-79.36 26 -76.72 26 -74 26 C-74 25.01 -74 24.02 -74 23 C-71.69 22.67 -69.38 22.34 -67 22 C-67 21.01 -67 20.02 -67 19 C-65.68 19 -64.36 19 -63 19 C-63 17.68 -63 16.36 -63 15 C-59.37 15 -55.74 15 -52 15 C-52 13.68 -52 12.36 -52 11 C-46.06 11 -40.12 11 -34 11 C-34 9.68 -34 8.36 -34 7 C-31.36 7 -28.72 7 -26 7 C-26 6.01 -26 5.02 -26 4 C-22.94080612 2.98026871 -20.87581975 2.88466398 -17.67578125 2.90234375 C-16.64775391 2.90556641 -15.61972656 2.90878906 -14.56054688 2.91210938 C-12.95276367 2.92467773 -12.95276367 2.92467773 -11.3125 2.9375 C-9.68731445 2.94426758 -9.68731445 2.94426758 -8.02929688 2.95117188 C-5.35280915 2.96296257 -2.67643223 2.97941937 0 3 C0 2.01 0 1.02 0 0 Z " fill="#FFFFFF" transform="translate(827,1305)"/>
<path d="M0 0 C14.92505086 -0.02335822 29.85010031 -0.04099356 44.77516556 -0.05181217 C51.70509706 -0.05696891 58.6350172 -0.06399977 65.56494141 -0.07543945 C72.24981594 -0.08646936 78.93467623 -0.09228073 85.61956024 -0.09487724 C88.1728916 -0.09672819 90.7262223 -0.1003425 93.27954865 -0.10573006 C96.84946603 -0.11296461 100.4193343 -0.11398991 103.98925781 -0.11352539 C105.05021164 -0.11712067 106.11116547 -0.12071594 107.20426941 -0.12442017 C108.66395897 -0.12235817 108.66395897 -0.12235817 110.15313721 -0.12025452 C111.41968077 -0.12163721 111.41968077 -0.12163721 112.71181107 -0.12304783 C114.9366342 -0.00340751 116.86525354 0.38050404 119 1 C119 2.32 119 3.64 119 5 C119.99 5 120.98 5 122 5 C122 10.94 122 16.88 122 23 C121.01 23 120.02 23 119 23 C118.67 24.32 118.34 25.64 118 27 C109.75 27 101.5 27 93 27 C93 28.32 93 29.64 93 31 C91.68 31 90.36 31 89 31 C89.00523682 31.56509277 89.01047363 32.13018555 89.01586914 32.71240234 C89.03662422 35.2665903 89.0496554 37.82076053 89.0625 40.375 C89.07087891 41.26445313 89.07925781 42.15390625 89.08789062 43.0703125 C89.09111328 43.92109375 89.09433594 44.771875 89.09765625 45.6484375 C89.10289307 46.43395996 89.10812988 47.21948242 89.11352539 48.02880859 C89 50 89 50 88 52 C87.34 52 86.68 52 86 52 C86 63.22 86 74.44 86 86 C86.99 86 87.98 86 89 86 C89 90.95 89 95.9 89 101 C88.01 101 87.02 101 86 101 C86 139.94 86 178.88 86 219 C86.99 219 87.98 219 89 219 C89 221.64 89 224.28 89 227 C89.99 227 90.98 227 92 227 C92 225.68 92 224.36 92 223 C112.79 223 133.58 223 155 223 C155 222.01 155 221.02 155 220 C158.67410785 218.82428549 162.16929183 218.92633254 166 219 C166 218.01 166 217.02 166 216 C167.32 216 168.64 216 170 216 C169.98839844 214.95199219 169.97679687 213.90398437 169.96484375 212.82421875 C169.95546345 211.44531428 169.9463635 210.06640789 169.9375 208.6875 C169.92912109 207.99720703 169.92074219 207.30691406 169.91210938 206.59570312 C169.89692094 203.4516975 169.99806673 201.00579981 171 198 C171.99 198 172.98 198 174 198 C174 194.04 174 190.08 174 186 C174.99 186 175.98 186 177 186 C177 184.68 177 183.36 177 182 C180.27081471 181.97097571 183.5415963 181.95319316 186.8125 181.9375 C188.2056543 181.92493164 188.2056543 181.92493164 189.62695312 181.91210938 C190.51962891 181.90888672 191.41230469 181.90566406 192.33203125 181.90234375 C193.15421143 181.89710693 193.9763916 181.89187012 194.82348633 181.88647461 C197 182 197 182 200 183 C200 189.93 200 196.86 200 204 C199.01 204 198.02 204 197 204 C197 216.54 197 229.08 197 242 C195.68 242 194.36 242 193 242 C193 243.32 193 244.64 193 246 C193.99 246 194.98 246 196 246 C196 246.99 196 247.98 196 249 C195.01 249.33 194.02 249.66 193 250 C192.67 250.99 192.34 251.98 192 253 C187.05 253 182.1 253 177 253 C177 252.01 177 251.02 177 250 C125.85 250 74.7 250 22 250 C22 250.99 22 251.98 22 253 C18.37 253 14.74 253 11 253 C11 252.01 11 251.02 11 250 C9.68 250 8.36 250 7 250 C7 244.72 7 239.44 7 234 C9.31 234 11.62 234 14 234 C14 232.68 14 231.36 14 230 C15.32 230 16.64 230 18 230 C18 229.01 18 228.02 18 227 C19.32 227 20.64 227 22 227 C22 225.68 22 224.36 22 223 C22.99 223 23.98 223 25 223 C24.99777939 222.26972595 24.99555878 221.5394519 24.99327087 220.78704834 C24.97322452 213.90114281 24.95800368 207.01524164 24.94818783 200.12931442 C24.94297175 196.58928939 24.93589724 193.04928849 24.92456055 189.50927734 C24.91160577 185.43847422 24.90676124 181.36769641 24.90234375 177.296875 C24.89718246 176.02696716 24.89202118 174.75705933 24.88670349 173.44866943 C24.88662796 172.26774719 24.88655243 171.08682495 24.88647461 169.87011719 C24.884254 168.83087097 24.88203339 167.79162476 24.87974548 166.72088623 C24.98625015 164.31110502 25.30592919 162.29963193 26 160 C26.99 160 27.98 160 29 160 C29 139.21 29 118.42 29 97 C28.01 97 27.02 97 26 97 C24.72463461 90.15539196 24.87377512 83.35361619 24.90234375 76.41015625 C24.9037587 75.11049423 24.90517365 73.81083221 24.90663147 72.4717865 C24.91042666 69.03756747 24.92023092 65.60339158 24.93133545 62.16918945 C24.94161445 58.65641869 24.94614292 55.14364088 24.95117188 51.63085938 C24.96185624 44.75388867 24.97889612 37.87694641 25 31 C24.01 31 23.02 31 22 31 C22 29.68 22 28.36 22 27 C20.68 27 19.36 27 18 27 C18 27.99 18 28.98 18 30 C17.01 30 16.02 30 15 30 C15 29.01 15 28.02 15 27 C9.72 27 4.44 27 -1 27 C-1 26.01 -1 25.02 -1 24 C-1.99 24 -2.98 24 -4 24 C-4 17.4 -4 10.8 -4 4 C-3.01 4 -2.02 4 -1 4 C-0.67 2.68 -0.34 1.36 0 0 Z " fill="#FFFFFF" transform="translate(1387,1308)"/>
<path d="M0 0 C0.97175171 -0.00137466 1.94350342 -0.00274933 2.94470215 -0.00416565 C4.5415258 0.00122726 4.5415258 0.00122726 6.17060852 0.00672913 C7.29270721 0.0065831 8.41480591 0.00643707 9.57090759 0.00628662 C13.2881614 0.00698454 17.0053654 0.01477134 20.72261047 0.02259827 C23.29665093 0.02446287 25.87069173 0.02588658 28.44473267 0.02688599 C34.532647 0.03031694 40.62054072 0.03820233 46.70844728 0.04823548 C53.63945866 0.0594103 60.5704709 0.06491052 67.50148904 0.06993091 C81.75879958 0.0803853 96.01609501 0.09797622 110.27339172 0.12025452 C110.76839172 2.10025452 110.76839172 2.10025452 111.27339172 4.12025452 C112.59339172 4.45025452 113.91339172 4.78025452 115.27339172 5.12025452 C115.27339172 11.06025452 115.27339172 17.00025452 115.27339172 23.12025452 C113.95339172 23.45025452 112.63339172 23.78025452 111.27339172 24.12025452 C111.27339172 25.11025452 111.27339172 26.10025452 111.27339172 27.12025452 C103.68339172 27.12025452 96.09339172 27.12025452 88.27339172 27.12025452 C88.27339172 28.11025452 88.27339172 29.10025452 88.27339172 30.12025452 C86.78839172 30.61525452 86.78839172 30.61525452 85.27339172 31.12025452 C84.94339172 33.43025452 84.61339172 35.74025452 84.27339172 38.12025452 C83.28339172 38.12025452 82.29339172 38.12025452 81.27339172 38.12025452 C81.27339172 39.44025452 81.27339172 40.76025452 81.27339172 42.12025452 C82.26339172 42.12025452 83.25339172 42.12025452 84.27339172 42.12025452 C84.27339172 44.43025452 84.27339172 46.74025452 84.27339172 49.12025452 C83.28339172 49.12025452 82.29339172 49.12025452 81.27339172 49.12025452 C81.27339172 90.70025452 81.27339172 132.28025452 81.27339172 175.12025452 C80.28339172 175.12025452 79.29339172 175.12025452 78.27339172 175.12025452 C78.27339172 177.43025452 78.27339172 179.74025452 78.27339172 182.12025452 C79.26339172 182.12025452 80.25339172 182.12025452 81.27339172 182.12025452 C81.27339172 194.66025452 81.27339172 207.20025452 81.27339172 220.12025452 C82.26339172 220.12025452 83.25339172 220.12025452 84.27339172 220.12025452 C84.76839172 223.58525452 84.76839172 223.58525452 85.27339172 227.12025452 C86.26339172 227.12025452 87.25339172 227.12025452 88.27339172 227.12025452 C88.27339172 225.80025452 88.27339172 224.48025452 88.27339172 223.12025452 C91.90339172 223.12025452 95.53339172 223.12025452 99.27339172 223.12025452 C99.27339172 224.44025452 99.27339172 225.76025452 99.27339172 227.12025452 C100.59339172 227.12025452 101.91339172 227.12025452 103.27339172 227.12025452 C103.27339172 225.80025452 103.27339172 224.48025452 103.27339172 223.12025452 C114.49339172 223.12025452 125.71339172 223.12025452 137.27339172 223.12025452 C137.27339172 222.13025452 137.27339172 221.14025452 137.27339172 220.12025452 C145.6244338 219.43754159 153.89328144 218.96633412 162.27339172 219.12025452 C162.26179016 218.0722467 162.2501886 217.02423889 162.23823547 215.94447327 C162.22885517 214.5655688 162.21975523 213.1866624 162.21089172 211.80775452 C162.20251282 211.11746155 162.19413391 210.42716858 162.1855011 209.71595764 C162.17031267 206.57195201 162.27145845 204.12605433 163.27339172 201.12025452 C164.26339172 201.12025452 165.25339172 201.12025452 166.27339172 201.12025452 C166.27339172 196.17025452 166.27339172 191.22025452 166.27339172 186.12025452 C167.59339172 186.12025452 168.91339172 186.12025452 170.27339172 186.12025452 C170.27339172 184.80025452 170.27339172 183.48025452 170.27339172 182.12025452 C173.91920859 182.0913794 177.56499636 182.07349867 181.21089172 182.05775452 C182.25180969 182.04937561 183.29272766 182.0409967 184.3651886 182.03236389 C185.35454407 182.02914124 186.34389954 182.02591858 187.36323547 182.02259827 C188.27967834 182.01736145 189.19612122 182.01212463 190.14033508 182.00672913 C192.27339172 182.12025452 192.27339172 182.12025452 193.27339172 183.12025452 C193.37201776 184.51199811 193.40418152 185.90861595 193.40620422 187.30384827 C193.40749329 188.14882874 193.40878235 188.9938092 193.41011047 189.86439514 C193.40624329 190.75320374 193.4023761 191.64201233 193.39839172 192.55775452 C193.40225891 193.44269592 193.4061261 194.32763733 193.41011047 195.23939514 C193.40882141 196.08566467 193.40753235 196.9319342 193.40620422 197.80384827 C193.40507629 198.58300598 193.40394836 199.3621637 193.40278625 200.16493225 C193.27339172 202.12025452 193.27339172 202.12025452 192.27339172 204.12025452 C191.28339172 204.12025452 190.29339172 204.12025452 189.27339172 204.12025452 C189.27339172 217.65025452 189.27339172 231.18025452 189.27339172 245.12025452 C187.95339172 245.45025452 186.63339172 245.78025452 185.27339172 246.12025452 C185.27339172 247.44025452 185.27339172 248.76025452 185.27339172 250.12025452 C184.28339172 250.12025452 183.29339172 250.12025452 182.27339172 250.12025452 C182.27339172 251.11025452 182.27339172 252.10025452 182.27339172 253.12025452 C176.00339172 253.12025452 169.73339172 253.12025452 163.27339172 253.12025452 C163.27339172 252.13025452 163.27339172 251.14025452 163.27339172 250.12025452 C114.43339172 250.12025452 65.59339172 250.12025452 15.27339172 250.12025452 C15.27339172 251.11025452 15.27339172 252.10025452 15.27339172 253.12025452 C11.31339172 253.12025452 7.35339172 253.12025452 3.27339172 253.12025452 C3.27339172 251.80025452 3.27339172 250.48025452 3.27339172 249.12025452 C1.95339172 249.12025452 0.63339172 249.12025452 -0.72660828 249.12025452 C-0.72660828 245.49025452 -0.72660828 241.86025452 -0.72660828 238.12025452 C0.59339172 238.12025452 1.91339172 238.12025452 3.27339172 238.12025452 C3.27339172 236.80025452 3.27339172 235.48025452 3.27339172 234.12025452 C4.59339172 234.12025452 5.91339172 234.12025452 7.27339172 234.12025452 C7.27339172 233.13025452 7.27339172 232.14025452 7.27339172 231.12025452 C9.58339172 230.79025452 11.89339172 230.46025452 14.27339172 230.12025452 C14.27339172 229.13025452 14.27339172 228.14025452 14.27339172 227.12025452 C15.59339172 227.12025452 16.91339172 227.12025452 18.27339172 227.12025452 C18.27339172 218.54025452 18.27339172 209.96025452 18.27339172 201.12025452 C19.26339172 201.12025452 20.25339172 201.12025452 21.27339172 201.12025452 C21.27339172 186.27025452 21.27339172 171.42025452 21.27339172 156.12025452 C22.59339172 156.12025452 23.91339172 156.12025452 25.27339172 156.12025452 C25.27339172 140.61025452 25.27339172 125.10025452 25.27339172 109.12025452 C23.95339172 109.12025452 22.63339172 109.12025452 21.27339172 109.12025452 C21.27339172 89.32025452 21.27339172 69.52025452 21.27339172 49.12025452 C20.28339172 49.12025452 19.29339172 49.12025452 18.27339172 49.12025452 C18.27339172 43.18025452 18.27339172 37.24025452 18.27339172 31.12025452 C16.95339172 31.12025452 15.63339172 31.12025452 14.27339172 31.12025452 C14.27339172 29.80025452 14.27339172 28.48025452 14.27339172 27.12025452 C7.01339172 27.12025452 -0.24660828 27.12025452 -7.72660828 27.12025452 C-7.72660828 25.80025452 -7.72660828 24.48025452 -7.72660828 23.12025452 C-9.04660828 23.12025452 -10.36660828 23.12025452 -11.72660828 23.12025452 C-11.72660828 16.85025452 -11.72660828 10.58025452 -11.72660828 4.12025452 C-10.40660828 4.12025452 -9.08660828 4.12025452 -7.72660828 4.12025452 C-7.72660828 3.13025452 -7.72660828 2.14025452 -7.72660828 1.12025452 C-4.82787509 0.15401012 -3.01233235 -0.00328499 0 0 Z " fill="#FFFFFF" transform="translate(1175.7266082763672,1307.8797454833984)"/>
<path d="M0 0 C23.43 0 46.86 0 71 0 C71 1.32 71 2.64 71 4 C75.95 4 80.9 4 86 4 C86 4.99 86 5.98 86 7 C87.32 7 88.64 7 90 7 C90 8.32 90 9.64 90 11 C92.31 11 94.62 11 97 11 C97 12.32 97 13.64 97 15 C98.32 15 99.64 15 101 15 C101 16.32 101 17.64 101 19 C102.32 19 103.64 19 105 19 C105 21.31 105 23.62 105 26 C106.98 26.495 106.98 26.495 109 27 C109.02477373 31.05679377 109.04289493 35.11355806 109.05493164 39.17041016 C109.05995118 40.54964973 109.06676819 41.92888402 109.07543945 43.30810547 C109.0876092 45.29392183 109.09271633 47.27977749 109.09765625 49.265625 C109.10289307 50.45961914 109.10812988 51.65361328 109.11352539 52.88378906 C109.01941946 55.46694617 108.76626155 57.55008419 108 60 C107.01 60 106.02 60 105 60 C105 62.31 105 64.62 105 67 C104.360625 67.103125 103.72125 67.20625 103.0625 67.3125 C102.381875 67.539375 101.70125 67.76625 101 68 C100.505 69.485 100.505 69.485 100 71 C98.02 71 96.04 71 94 71 C94 71.99 94 72.98 94 74 C96.31 74.33 98.62 74.66 101 75 C101 75.99 101 76.98 101 78 C102.32 78 103.64 78 105 78 C105 79.32 105 80.64 105 82 C106.32 82 107.64 82 109 82 C109 84.31 109 86.62 109 89 C109.99 89 110.98 89 112 89 C112 90.32 112 91.64 112 93 C113.32 93 114.64 93 116 93 C116 104.22 116 115.44 116 127 C114.68 127 113.36 127 112 127 C112 129.31 112 131.62 112 134 C111.01 134 110.02 134 109 134 C109 136.64 109 139.28 109 142 C107.68 142 106.36 142 105 142 C105 143.32 105 144.64 105 146 C103.68 146 102.36 146 101 146 C101 146.99 101 147.98 101 149 C98.69 149 96.38 149 94 149 C94 150.32 94 151.64 94 153 C91.36 153 88.72 153 86 153 C86 154.32 86 155.64 86 157 C81.38 157 76.76 157 72 157 C72 157.99 72 158.98 72 160 C69.03 160 66.06 160 63 160 C63 159.01 63 158.02 63 157 C53.43 157 43.86 157 34 157 C34 157.99 34 158.98 34 160 C32.68 160 31.36 160 30 160 C30 159.01 30 158.02 30 157 C28.68 157 27.36 157 26 157 C26 157.99 26 158.98 26 160 C22.37 160 18.74 160 15 160 C15 159.01 15 158.02 15 157 C13.71222656 157.01160156 12.42445313 157.02320313 11.09765625 157.03515625 C9.41927228 157.0445327 7.74088674 157.05363305 6.0625 157.0625 C5.21236328 157.07087891 4.36222656 157.07925781 3.48632812 157.08789062 C2.67744141 157.09111328 1.86855469 157.09433594 1.03515625 157.09765625 C0.2862915 157.10289307 -0.46257324 157.10812988 -1.23413086 157.11352539 C-3 157 -3 157 -4 156 C-4.09664967 154.05105041 -4.12187121 152.09854545 -4.12025452 150.14720154 C-4.12162918 148.87528961 -4.12300385 147.60337769 -4.12442017 146.29292297 C-4.12088055 144.87033058 -4.11724573 143.44773842 -4.11352539 142.02514648 C-4.11324353 140.53733319 -4.11340124 139.04951976 -4.1139679 137.56170654 C-4.1142559 133.51023 -4.10835867 129.4587828 -4.10139394 125.40731311 C-4.09516092 121.17788003 -4.09455664 116.94844636 -4.09336853 112.7190094 C-4.09025506 104.70440278 -4.08204146 96.68980973 -4.07201904 88.67520911 C-4.06085839 79.55323316 -4.05534758 70.43125658 -4.05032361 61.30927551 C-4.03985886 42.5395093 -4.02225912 23.76975574 -4 5 C-2.68 4.67 -1.36 4.34 0 4 C0 2.68 0 1.36 0 0 Z M34 27 C34 27.99 34 28.98 34 30 C31.69 30 29.38 30 27 30 C27 40.89 27 51.78 27 63 C29.31 63 31.62 63 34 63 C34 64.32 34 65.64 34 67 C42.58 67 51.16 67 60 67 C60 65.68 60 64.36 60 63 C63.63 63 67.26 63 71 63 C71 62.01 71 61.02 71 60 C73.31 59.67 75.62 59.34 78 59 C78 58.01 78 57.02 78 56 C79.32 56 80.64 56 82 56 C82 49.73 82 43.46 82 37 C81.01 37 80.02 37 79 37 C79 36.01 79 35.02 79 34 C77.68 34 76.36 34 75 34 C75 33.01 75 32.02 75 31 C71.04 31 67.08 31 63 31 C63 29.68 63 28.36 63 27 C53.43 27 43.86 27 34 27 Z M27 90 C27 104.52 27 119.04 27 134 C27.99 134 28.98 134 30 134 C30 132.68 30 131.36 30 130 C31.32 130 32.64 130 34 130 C34 131.32 34 132.64 34 134 C43.9 134 53.8 134 64 134 C64 132.68 64 131.36 64 130 C68.62 130 73.24 130 78 130 C78.33 129.01 78.66 128.02 79 127 C81.97 126.505 81.97 126.505 85 126 C85.495 121.05 85.495 121.05 86 116 C86.99 116 87.98 116 89 116 C89 112.37 89 108.74 89 105 C88.01 105 87.02 105 86 105 C85.505 101.04 85.505 101.04 85 97 C84.030625 96.87625 83.06125 96.7525 82.0625 96.625 C81.051875 96.41875 80.04125 96.2125 79 96 C78.505 95.01 78.505 95.01 78 94 C77.01 93.67 76.02 93.34 75 93 C74.505 91.515 74.505 91.515 74 90 C58.49 90 42.98 90 27 90 Z " fill="#FFFFFF" transform="translate(982,1631)"/>
<path d="M0 0 C1.02577148 0.00676758 1.02577148 0.00676758 2.07226562 0.01367188 C3.73571604 0.0253044 5.3991205 0.04323306 7.0625 0.0625 C7.0625 1.3825 7.0625 2.7025 7.0625 4.0625 C8.3825 4.0625 9.7025 4.0625 11.0625 4.0625 C11.0625 23.5325 11.0625 43.0025 11.0625 63.0625 C34.1625 63.0625 57.2625 63.0625 81.0625 63.0625 C81.0625 42.6025 81.0625 22.1425 81.0625 1.0625 C84.20940775 0.27577306 86.2562621 -0.05754456 89.390625 -0.03515625 C90.58945313 -0.03032227 90.58945313 -0.03032227 91.8125 -0.02539062 C93.05 -0.01282227 93.05 -0.01282227 94.3125 0 C95.15296875 0.00451172 95.9934375 0.00902344 96.859375 0.01367188 C98.92711401 0.02542039 100.99481624 0.04335478 103.0625 0.0625 C103.5575 2.0425 103.5575 2.0425 104.0625 4.0625 C105.3825 4.0625 106.7025 4.0625 108.0625 4.0625 C108.08584954 23.42060194 108.1034893 42.77870102 108.11431217 62.13681412 C108.11947075 71.1249056 108.12650513 80.11298834 108.13793945 89.10107422 C108.14789964 96.9341281 108.15435662 104.76717566 108.15658849 112.6002357 C108.15789332 116.74862753 108.16096486 120.89700124 108.16823006 125.04538727 C108.1750113 128.94901634 108.17711265 132.8526198 108.17560768 136.7562542 C108.17588306 138.18975145 108.17787572 139.62324955 108.18170547 141.05674171 C108.18667546 143.01277677 108.18488991 144.96882552 108.18275452 146.92486572 C108.18367631 148.01995579 108.1845981 149.11504585 108.18554783 150.24332047 C108.07859503 152.69374273 107.77404618 154.72711144 107.0625 157.0625 C106.0725 157.0625 105.0825 157.0625 104.0625 157.0625 C104.0625 158.0525 104.0625 159.0425 104.0625 160.0625 C101.4225 160.0625 98.7825 160.0625 96.0625 160.0625 C96.0625 159.0725 96.0625 158.0825 96.0625 157.0625 C93.4225 157.0625 90.7825 157.0625 88.0625 157.0625 C88.0625 158.0525 88.0625 159.0425 88.0625 160.0625 C87.0725 160.0625 86.0825 160.0625 85.0625 160.0625 C85.0625 159.0725 85.0625 158.0825 85.0625 157.0625 C83.7425 157.0625 82.4225 157.0625 81.0625 157.0625 C81.0625 133.6325 81.0625 110.2025 81.0625 86.0625 C57.9625 86.0625 34.8625 86.0625 11.0625 86.0625 C11.0625 109.4925 11.0625 132.9225 11.0625 157.0625 C9.7425 157.0625 8.4225 157.0625 7.0625 157.0625 C7.0625 158.0525 7.0625 159.0425 7.0625 160.0625 C-0.1975 160.0625 -7.4575 160.0625 -14.9375 160.0625 C-14.9375 159.0725 -14.9375 158.0825 -14.9375 157.0625 C-16.2575 157.0625 -17.5775 157.0625 -18.9375 157.0625 C-18.9375 149.4725 -18.9375 141.8825 -18.9375 134.0625 C-17.9475 134.0625 -16.9575 134.0625 -15.9375 134.0625 C-15.9375 117.8925 -15.9375 101.7225 -15.9375 85.0625 C-16.9275 85.0625 -17.9175 85.0625 -18.9375 85.0625 C-18.9375 82.7525 -18.9375 80.4425 -18.9375 78.0625 C-17.9475 78.0625 -16.9575 78.0625 -15.9375 78.0625 C-15.9375 76.7425 -15.9375 75.4225 -15.9375 74.0625 C-16.9275 74.0625 -17.9175 74.0625 -18.9375 74.0625 C-18.9375 73.0725 -18.9375 72.0825 -18.9375 71.0625 C-17.9475 71.0625 -16.9575 71.0625 -15.9375 71.0625 C-15.9375 70.0725 -15.9375 69.0825 -15.9375 68.0625 C-16.9275 68.0625 -17.9175 68.0625 -18.9375 68.0625 C-18.9375 65.0925 -18.9375 62.1225 -18.9375 59.0625 C-17.9475 59.0625 -16.9575 59.0625 -15.9375 59.0625 C-15.9375 42.2325 -15.9375 25.4025 -15.9375 8.0625 C-16.9275 8.0625 -17.9175 8.0625 -18.9375 8.0625 C-18.9375 6.7425 -18.9375 5.4225 -18.9375 4.0625 C-17.6175 4.0625 -16.2975 4.0625 -14.9375 4.0625 C-14.9375 3.0725 -14.9375 2.0825 -14.9375 1.0625 C-9.89895894 0.23038724 -5.1249338 -0.0453534 0 0 Z " fill="#FFFFFF" transform="translate(1134.9375,1630.9375)"/>
<path d="M0 0 C0.97175171 -0.00137466 1.94350342 -0.00274933 2.94470215 -0.00416565 C4.5415258 0.00122726 4.5415258 0.00122726 6.17060852 0.00672913 C7.29270721 0.0065831 8.41480591 0.00643707 9.57090759 0.00628662 C13.2881614 0.00698454 17.0053654 0.01477134 20.72261047 0.02259827 C23.29665093 0.02446287 25.87069173 0.02588658 28.44473267 0.02688599 C34.532647 0.03031694 40.62054072 0.03820233 46.70844728 0.04823548 C53.63945866 0.0594103 60.5704709 0.06491052 67.50148904 0.06993091 C81.75879958 0.0803853 96.01609501 0.09797622 110.27339172 0.12025452 C110.76839172 2.10025452 110.76839172 2.10025452 111.27339172 4.12025452 C112.59339172 4.12025452 113.91339172 4.12025452 115.27339172 4.12025452 C115.27339172 11.71025452 115.27339172 19.30025452 115.27339172 27.12025452 C106.36339172 27.12025452 97.45339172 27.12025452 88.27339172 27.12025452 C88.27339172 28.11025452 88.27339172 29.10025452 88.27339172 30.12025452 C87.28339172 30.12025452 86.29339172 30.12025452 85.27339172 30.12025452 C85.27339172 29.13025452 85.27339172 28.14025452 85.27339172 27.12025452 C83.95339172 27.12025452 82.63339172 27.12025452 81.27339172 27.12025452 C81.27339172 28.11025452 81.27339172 29.10025452 81.27339172 30.12025452 C79.95339172 30.12025452 78.63339172 30.12025452 77.27339172 30.12025452 C77.27339172 29.13025452 77.27339172 28.14025452 77.27339172 27.12025452 C74.96339172 27.12025452 72.65339172 27.12025452 70.27339172 27.12025452 C70.27339172 28.11025452 70.27339172 29.10025452 70.27339172 30.12025452 C69.28339172 30.12025452 68.29339172 30.12025452 67.27339172 30.12025452 C67.27339172 68.07025452 67.27339172 106.02025452 67.27339172 145.12025452 C68.26339172 145.12025452 69.25339172 145.12025452 70.27339172 145.12025452 C70.27339172 147.43025452 70.27339172 149.74025452 70.27339172 152.12025452 C69.28339172 152.12025452 68.29339172 152.12025452 67.27339172 152.12025452 C66.77839172 156.08025452 66.77839172 156.08025452 66.27339172 160.12025452 C64.95339172 160.12025452 63.63339172 160.12025452 62.27339172 160.12025452 C62.27339172 159.13025452 62.27339172 158.14025452 62.27339172 157.12025452 C61.28339172 157.12025452 60.29339172 157.12025452 59.27339172 157.12025452 C59.27339172 158.11025452 59.27339172 159.10025452 59.27339172 160.12025452 C53.00339172 160.12025452 46.73339172 160.12025452 40.27339172 160.12025452 C40.27339172 157.48025452 40.27339172 154.84025452 40.27339172 152.12025452 C39.28339172 152.12025452 38.29339172 152.12025452 37.27339172 152.12025452 C37.27339172 151.13025452 37.27339172 150.14025452 37.27339172 149.12025452 C38.26339172 149.12025452 39.25339172 149.12025452 40.27339172 149.12025452 C40.27339172 109.85025452 40.27339172 70.58025452 40.27339172 30.12025452 C39.28339172 30.12025452 38.29339172 30.12025452 37.27339172 30.12025452 C37.27339172 29.13025452 37.27339172 28.14025452 37.27339172 27.12025452 C29.68339172 27.12025452 22.09339172 27.12025452 14.27339172 27.12025452 C14.27339172 28.11025452 14.27339172 29.10025452 14.27339172 30.12025452 C10.65471613 31.32647971 7.34832922 31.22842369 3.58589172 31.18275452 C2.88399719 31.1782428 2.18210266 31.17373108 1.4589386 31.16908264 C-0.26961366 31.15732378 -1.99812193 31.13938905 -3.72660828 31.12025452 C-4.05660828 29.80025452 -4.38660828 28.48025452 -4.72660828 27.12025452 C-7.03660828 26.79025452 -9.34660828 26.46025452 -11.72660828 26.12025452 C-11.72660828 20.18025452 -11.72660828 14.24025452 -11.72660828 8.12025452 C-10.40660828 8.12025452 -9.08660828 8.12025452 -7.72660828 8.12025452 C-7.72660828 5.81025452 -7.72660828 3.50025452 -7.72660828 1.12025452 C-4.82787509 0.15401012 -3.01233235 -0.00328499 0 0 Z " fill="#FFFFFF" transform="translate(782.7266082763672,1630.8797454833984)"/>
<path d="M0 0 C1.32 0 2.64 0 4 0 C4 0.99 4 1.98 4 3 C28.42 3 52.84 3 78 3 C78 2.01 78 1.02 78 0 C81.63 0 85.26 0 89 0 C89 0.99 89 1.98 89 3 C90.32 3 91.64 3 93 3 C93 2.01 93 1.02 93 0 C96.63 0 100.26 0 104 0 C104 0.99 104 1.98 104 3 C105.32 3 106.64 3 108 3 C108 6.96 108 10.92 108 15 C106.68 15 105.36 15 104 15 C104 18.96 104 22.92 104 27 C103.01 27 102.02 27 101 27 C101.01160156 27.96421875 101.02320313 28.9284375 101.03515625 29.921875 C101.04417969 31.18515625 101.05320312 32.4484375 101.0625 33.75 C101.07410156 35.00296875 101.08570313 36.2559375 101.09765625 37.546875 C101.02021027 40.28536501 100.82780815 42.41880293 100 45 C97.69 45 95.38 45 93 45 C93 45.99 93 46.98 93 48 C90.23148504 48.78120055 87.77475874 49.12543392 84.90136719 49.12698364 C83.69015198 49.13121338 83.69015198 49.13121338 82.45446777 49.13552856 C81.13895935 49.13249222 81.13895935 49.13249222 79.796875 49.12939453 C78.40112244 49.13202301 78.40112244 49.13202301 76.97717285 49.13470459 C73.90142959 49.13910575 70.82574384 49.13619119 67.75 49.1328125 C65.61295562 49.13348604 63.47591131 49.13445648 61.33886719 49.13571167 C56.86001862 49.13718629 52.38119 49.13504163 47.90234375 49.13037109 C42.15881767 49.12467396 36.41533833 49.12795422 30.67181396 49.13394356 C26.25894824 49.13755551 21.8460936 49.13640765 17.43322754 49.13381577 C15.31530756 49.13314826 13.19738658 49.13396879 11.07946777 49.13629532 C8.12065967 49.13883219 5.16192745 49.13496654 2.203125 49.12939453 C1.32611938 49.13141876 0.44911377 49.13344299 -0.45446777 49.13552856 C-1.26194458 49.13270874 -2.06942139 49.12988892 -2.90136719 49.12698364 C-3.94994904 49.1264181 -3.94994904 49.1264181 -5.01971436 49.12584114 C-7.11514698 48.99268276 -8.98280202 48.56919908 -11 48 C-11 47.01 -11 46.02 -11 45 C-12.32 45 -13.64 45 -15 45 C-15.02703381 43.06257659 -15.04641125 41.12504521 -15.0625 39.1875 C-15.07410156 38.10855469 -15.08570313 37.02960938 -15.09765625 35.91796875 C-15 33 -15 33 -14 30 C-13.01 30 -12.02 30 -11 30 C-11 28.68 -11 27.36 -11 26 C-10.01 26 -9.02 26 -8 26 C-8 21.05 -8 16.1 -8 11 C-6.68 11 -5.36 11 -4 11 C-4 8.36 -4 5.72 -4 3 C-2.68 3 -1.36 3 0 3 C0 2.01 0 1.02 0 0 Z " fill="#FFFFFF" transform="translate(493,1446)"/>
<path d="M0 0 C2.64 0 5.28 0 8 0 C8 1.32 8 2.64 8 4 C10.31 4 12.62 4 15 4 C15 2.68 15 1.36 15 0 C17.31 0 19.62 0 22 0 C22.33 1.32 22.66 2.64 23 4 C24.32 4 25.64 4 27 4 C27 54.16 27 104.32 27 156 C25.68 156.33 24.36 156.66 23 157 C23 157.99 23 158.98 23 160 C15.41 160 7.82 160 0 160 C0 159.01 0 158.02 0 157 C-1.32 156.67 -2.64 156.34 -4 156 C-4.02907084 152.41668375 -4.04682263 148.83339792 -4.0625 145.25 C-4.07087891 144.23421875 -4.07925781 143.2184375 -4.08789062 142.171875 C-4.09111328 141.1921875 -4.09433594 140.2125 -4.09765625 139.203125 C-4.10289307 138.30239258 -4.10812988 137.40166016 -4.11352539 136.47363281 C-4.00762312 134.16610196 -3.65132813 132.20865595 -3 130 C-2.01 130 -1.02 130 0 130 C0 89.74 0 49.48 0 8 C-1.32 7.67 -2.64 7.34 -4 7 C-4 6.01 -4 5.02 -4 4 C-2.68 4 -1.36 4 0 4 C0 2.68 0 1.36 0 0 Z " fill="#FFFFFF" transform="translate(734,1631)"/>
<path d="M0 0 C7.26 0 14.52 0 22 0 C22 1.32 22 2.64 22 4 C23.32 4 24.64 4 26 4 C26.02334165 23.89690798 26.04098541 43.79381318 26.05181217 63.690732 C26.05697243 72.92883575 26.06401001 82.166931 26.07543945 91.4050293 C26.08539451 99.45525038 26.0918554 107.50546531 26.09408849 115.55569237 C26.0953942 119.81974721 26.09847124 124.08378443 26.10573006 128.34783363 C26.11250321 132.35898103 26.1146143 136.37010353 26.11310768 140.3812561 C26.11338342 141.85548729 26.11538088 143.32971929 26.11920547 144.80394554 C26.12416284 146.8128792 26.12239284 148.82182614 26.12025452 150.83076477 C26.12117631 151.956274 26.1220981 153.08178324 26.12304783 154.24139881 C26 157 26 157 25 160 C16.75 160 8.5 160 0 160 C0 159.01 0 158.02 0 157 C-1.32 157 -2.64 157 -4 157 C-4 153.04 -4 149.08 -4 145 C-3.01 145 -2.02 145 -1 145 C-1 143.68 -1 142.36 -1 141 C-1.99 141 -2.98 141 -4 141 C-4 137.37 -4 133.74 -4 130 C-3.01 130 -2.02 130 -1 130 C-1 89.74 -1 49.48 -1 8 C-1.99 8 -2.98 8 -4 8 C-4 6.68 -4 5.36 -4 4 C-2.68 4 -1.36 4 0 4 C0 2.68 0 1.36 0 0 Z " fill="#FFFFFF" transform="translate(675,1631)"/>
<path d="M0 0 C0.84433594 0.00322266 1.68867187 0.00644531 2.55859375 0.00976562 C3.86763672 0.02233398 3.86763672 0.02233398 5.203125 0.03515625 C6.09128906 0.03966797 6.97945312 0.04417969 7.89453125 0.04882812 C10.08079829 0.06058225 12.26692679 0.07701376 14.453125 0.09765625 C14.453125 1.41765625 14.453125 2.73765625 14.453125 4.09765625 C15.773125 4.09765625 17.093125 4.09765625 18.453125 4.09765625 C18.453125 54.25765625 18.453125 104.41765625 18.453125 156.09765625 C17.133125 156.42765625 15.813125 156.75765625 14.453125 157.09765625 C14.453125 158.08765625 14.453125 159.07765625 14.453125 160.09765625 C11.813125 160.09765625 9.173125 160.09765625 6.453125 160.09765625 C6.453125 159.10765625 6.453125 158.11765625 6.453125 157.09765625 C3.813125 157.09765625 1.173125 157.09765625 -1.546875 157.09765625 C-1.546875 158.08765625 -1.546875 159.07765625 -1.546875 160.09765625 C-2.536875 160.09765625 -3.526875 160.09765625 -4.546875 160.09765625 C-4.546875 159.10765625 -4.546875 158.11765625 -4.546875 157.09765625 C-5.866875 157.09765625 -7.186875 157.09765625 -8.546875 157.09765625 C-8.546875 105.61765625 -8.546875 54.13765625 -8.546875 1.09765625 C-5.33700084 0.29518771 -3.21053978 -0.02169284 0 0 Z " fill="#FFFFFF" transform="translate(627.546875,1630.90234375)"/>
<path d="M0 0 C7.91886714 -0.02314476 15.8377202 -0.040926 23.75661278 -0.05181217 C27.43345711 -0.05703632 31.11027834 -0.0641255 34.78710938 -0.07543945 C38.3337896 -0.08628493 41.88044757 -0.09228037 45.4271431 -0.09487724 C46.78196183 -0.09672849 48.13677931 -0.10034338 49.49158859 -0.10573006 C51.38549365 -0.11296238 53.27942098 -0.11340824 55.17333984 -0.11352539 C56.79216568 -0.11685631 56.79216568 -0.11685631 58.44369507 -0.12025452 C61 0 61 0 63 1 C64.01161932 5.99447277 64.10747808 10.85497674 64.0625 15.9375 C64.05798828 16.62134766 64.05347656 17.30519531 64.04882812 18.00976562 C64.0371956 19.67321604 64.01926694 21.3366205 64 23 C63.01 23 62.02 23 61 23 C61 24.32 61 25.64 61 27 C41.2 27 21.4 27 1 27 C0.67 25.68 0.34 24.36 0 23 C-0.99 23 -1.98 23 -3 23 C-3 16.73 -3 10.46 -3 4 C-2.01 4 -1.02 4 0 4 C0 2.68 0 1.36 0 0 Z " fill="#FFFFFF" transform="translate(904,1720)"/>
</svg>
